ISO-10303-21;
HEADER;
/* Generated by software containing ST-Developer
 * from STEP Tools, Inc. (www.steptools.com) 
 */

FILE_DESCRIPTION(
/* description */ (''),
/* implementation_level */ '2;1');

FILE_NAME(
/* name */ '',
/* time_stamp */ '2026-08-02T14:35:48+09:00',
/* author */ (''),
/* organization */ (''),
/* preprocessor_version */ 'ST-DEVELOPER v20.1',
/* originating_system */ 'Autodesk Translation Framework v15.8.0.0',
/* authorisation */ '');

FILE_SCHEMA (('AUTOMOTIVE_DESIGN { 1 0 10303 214 3 1 1 }'));
ENDSEC;

DATA;
#10=MECHANICAL_DESIGN_GEOMETRIC_PRESENTATION_REPRESENTATION('',(#13),#846);
#11=SHAPE_REPRESENTATION_RELATIONSHIP('SRR','None',#853,#12);
#12=ADVANCED_BREP_SHAPE_REPRESENTATION('',(#14),#845);
#13=STYLED_ITEM('',(#862),#14);
#14=MANIFOLD_SOLID_BREP('\X2\30DC30C730A3\X0\1',#498);
#15=FACE_BOUND('',#100,.T.);
#16=FACE_BOUND('',#101,.T.);
#17=FACE_BOUND('',#103,.T.);
#18=FACE_BOUND('',#108,.T.);
#19=FACE_BOUND('',#111,.T.);
#20=FACE_BOUND('',#112,.T.);
#21=FACE_BOUND('',#114,.T.);
#22=FACE_BOUND('',#115,.T.);
#23=FACE_BOUND('',#116,.T.);
#24=FACE_BOUND('',#117,.T.);
#25=FACE_BOUND('',#118,.T.);
#26=FACE_BOUND('',#119,.T.);
#27=FACE_BOUND('',#120,.T.);
#28=PLANE('',#524);
#29=PLANE('',#528);
#30=PLANE('',#532);
#31=PLANE('',#536);
#32=PLANE('',#540);
#33=PLANE('',#544);
#34=PLANE('',#548);
#35=PLANE('',#549);
#36=PLANE('',#550);
#37=PLANE('',#551);
#38=PLANE('',#552);
#39=PLANE('',#553);
#40=PLANE('',#554);
#41=PLANE('',#555);
#42=PLANE('',#556);
#43=PLANE('',#557);
#44=PLANE('',#558);
#45=PLANE('',#559);
#46=PLANE('',#560);
#47=PLANE('',#561);
#48=FACE_OUTER_BOUND('',#78,.T.);
#49=FACE_OUTER_BOUND('',#79,.T.);
#50=FACE_OUTER_BOUND('',#80,.T.);
#51=FACE_OUTER_BOUND('',#81,.T.);
#52=FACE_OUTER_BOUND('',#82,.T.);
#53=FACE_OUTER_BOUND('',#83,.T.);
#54=FACE_OUTER_BOUND('',#84,.T.);
#55=FACE_OUTER_BOUND('',#85,.T.);
#56=FACE_OUTER_BOUND('',#86,.T.);
#57=FACE_OUTER_BOUND('',#87,.T.);
#58=FACE_OUTER_BOUND('',#88,.T.);
#59=FACE_OUTER_BOUND('',#89,.T.);
#60=FACE_OUTER_BOUND('',#90,.T.);
#61=FACE_OUTER_BOUND('',#91,.T.);
#62=FACE_OUTER_BOUND('',#92,.T.);
#63=FACE_OUTER_BOUND('',#93,.T.);
#64=FACE_OUTER_BOUND('',#94,.T.);
#65=FACE_OUTER_BOUND('',#95,.T.);
#66=FACE_OUTER_BOUND('',#96,.T.);
#67=FACE_OUTER_BOUND('',#97,.T.);
#68=FACE_OUTER_BOUND('',#98,.T.);
#69=FACE_OUTER_BOUND('',#99,.T.);
#70=FACE_OUTER_BOUND('',#102,.T.);
#71=FACE_OUTER_BOUND('',#104,.T.);
#72=FACE_OUTER_BOUND('',#105,.T.);
#73=FACE_OUTER_BOUND('',#106,.T.);
#74=FACE_OUTER_BOUND('',#107,.T.);
#75=FACE_OUTER_BOUND('',#109,.T.);
#76=FACE_OUTER_BOUND('',#110,.T.);
#77=FACE_OUTER_BOUND('',#113,.T.);
#78=EDGE_LOOP('',(#332,#333,#334,#335));
#79=EDGE_LOOP('',(#336,#337,#338,#339));
#80=EDGE_LOOP('',(#340,#341,#342,#343));
#81=EDGE_LOOP('',(#344,#345,#346,#347));
#82=EDGE_LOOP('',(#348));
#83=EDGE_LOOP('',(#349,#350,#351,#352));
#84=EDGE_LOOP('',(#353));
#85=EDGE_LOOP('',(#354,#355,#356,#357));
#86=EDGE_LOOP('',(#358));
#87=EDGE_LOOP('',(#359,#360,#361,#362));
#88=EDGE_LOOP('',(#363));
#89=EDGE_LOOP('',(#364,#365,#366,#367));
#90=EDGE_LOOP('',(#368));
#91=EDGE_LOOP('',(#369,#370,#371,#372));
#92=EDGE_LOOP('',(#373));
#93=EDGE_LOOP('',(#374,#375,#376,#377));
#94=EDGE_LOOP('',(#378));
#95=EDGE_LOOP('',(#379,#380,#381,#382,#383,#384));
#96=EDGE_LOOP('',(#385,#386,#387,#388));
#97=EDGE_LOOP('',(#389,#390,#391,#392,#393,#394,#395,#396));
#98=EDGE_LOOP('',(#397,#398,#399,#400));
#99=EDGE_LOOP('',(#401,#402,#403,#404));
#100=EDGE_LOOP('',(#405));
#101=EDGE_LOOP('',(#406));
#102=EDGE_LOOP('',(#407,#408,#409,#410));
#103=EDGE_LOOP('',(#411));
#104=EDGE_LOOP('',(#412,#413,#414,#415,#416,#417));
#105=EDGE_LOOP('',(#418,#419,#420,#421));
#106=EDGE_LOOP('',(#422,#423,#424,#425));
#107=EDGE_LOOP('',(#426,#427,#428,#429,#430,#431));
#108=EDGE_LOOP('',(#432));
#109=EDGE_LOOP('',(#433,#434,#435,#436));
#110=EDGE_LOOP('',(#437,#438,#439,#440));
#111=EDGE_LOOP('',(#441));
#112=EDGE_LOOP('',(#442));
#113=EDGE_LOOP('',(#443,#444,#445,#446,#447,#448,#449,#450));
#114=EDGE_LOOP('',(#451));
#115=EDGE_LOOP('',(#452));
#116=EDGE_LOOP('',(#453));
#117=EDGE_LOOP('',(#454));
#118=EDGE_LOOP('',(#455));
#119=EDGE_LOOP('',(#456));
#120=EDGE_LOOP('',(#457));
#121=LINE('',#712,#164);
#122=LINE('',#718,#165);
#123=LINE('',#724,#166);
#124=LINE('',#730,#167);
#125=LINE('',#737,#168);
#126=LINE('',#744,#169);
#127=LINE('',#751,#170);
#128=LINE('',#758,#171);
#129=LINE('',#765,#172);
#130=LINE('',#772,#173);
#131=LINE('',#778,#174);
#132=LINE('',#780,#175);
#133=LINE('',#782,#176);
#134=LINE('',#784,#177);
#135=LINE('',#786,#178);
#136=LINE('',#787,#179);
#137=LINE('',#790,#180);
#138=LINE('',#792,#181);
#139=LINE('',#793,#182);
#140=LINE('',#796,#183);
#141=LINE('',#798,#184);
#142=LINE('',#800,#185);
#143=LINE('',#802,#186);
#144=LINE('',#804,#187);
#145=LINE('',#806,#188);
#146=LINE('',#807,#189);
#147=LINE('',#811,#190);
#148=LINE('',#812,#191);
#149=LINE('',#813,#192);
#150=LINE('',#816,#193);
#151=LINE('',#817,#194);
#152=LINE('',#820,#195);
#153=LINE('',#821,#196);
#154=LINE('',#824,#197);
#155=LINE('',#825,#198);
#156=LINE('',#826,#199);
#157=LINE('',#830,#200);
#158=LINE('',#831,#201);
#159=LINE('',#834,#202);
#160=LINE('',#835,#203);
#161=LINE('',#838,#204);
#162=LINE('',#839,#205);
#163=LINE('',#841,#206);
#164=VECTOR('',#568,15.5);
#165=VECTOR('',#575,15.5);
#166=VECTOR('',#582,2.5);
#167=VECTOR('',#589,1.5);
#168=VECTOR('',#598,1.5);
#169=VECTOR('',#607,1.5);
#170=VECTOR('',#616,1.5);
#171=VECTOR('',#625,1.5);
#172=VECTOR('',#634,1.49999999999999);
#173=VECTOR('',#643,1.5);
#174=VECTOR('',#650,10.);
#175=VECTOR('',#651,10.);
#176=VECTOR('',#652,10.);
#177=VECTOR('',#653,10.);
#178=VECTOR('',#654,10.);
#179=VECTOR('',#655,10.);
#180=VECTOR('',#658,10.);
#181=VECTOR('',#659,10.);
#182=VECTOR('',#660,10.);
#183=VECTOR('',#663,10.);
#184=VECTOR('',#664,10.);
#185=VECTOR('',#665,10.);
#186=VECTOR('',#666,10.);
#187=VECTOR('',#667,10.);
#188=VECTOR('',#668,10.);
#189=VECTOR('',#669,10.);
#190=VECTOR('',#672,10.);
#191=VECTOR('',#673,10.);
#192=VECTOR('',#674,10.);
#193=VECTOR('',#677,10.);
#194=VECTOR('',#678,10.);
#195=VECTOR('',#681,10.);
#196=VECTOR('',#682,10.);
#197=VECTOR('',#685,10.);
#198=VECTOR('',#686,10.);
#199=VECTOR('',#687,10.);
#200=VECTOR('',#692,10.);
#201=VECTOR('',#693,10.);
#202=VECTOR('',#696,10.);
#203=VECTOR('',#697,10.);
#204=VECTOR('',#700,10.);
#205=VECTOR('',#701,10.);
#206=VECTOR('',#704,10.);
#207=CIRCLE('',#513,15.5);
#208=CIRCLE('',#514,15.5);
#209=CIRCLE('',#516,15.5);
#210=CIRCLE('',#517,15.5);
#211=CIRCLE('',#519,2.5);
#212=CIRCLE('',#520,2.5);
#213=CIRCLE('',#522,1.5);
#214=CIRCLE('',#523,1.5);
#215=CIRCLE('',#526,1.5);
#216=CIRCLE('',#527,1.5);
#217=CIRCLE('',#530,1.5);
#218=CIRCLE('',#531,1.5);
#219=CIRCLE('',#534,1.5);
#220=CIRCLE('',#535,1.5);
#221=CIRCLE('',#538,1.5);
#222=CIRCLE('',#539,1.5);
#223=CIRCLE('',#542,1.49999999999999);
#224=CIRCLE('',#543,1.49999999999999);
#225=CIRCLE('',#546,1.5);
#226=CIRCLE('',#547,1.5);
#227=VERTEX_POINT('',#709);
#228=VERTEX_POINT('',#711);
#229=VERTEX_POINT('',#715);
#230=VERTEX_POINT('',#717);
#231=VERTEX_POINT('',#721);
#232=VERTEX_POINT('',#723);
#233=VERTEX_POINT('',#727);
#234=VERTEX_POINT('',#729);
#235=VERTEX_POINT('',#734);
#236=VERTEX_POINT('',#736);
#237=VERTEX_POINT('',#741);
#238=VERTEX_POINT('',#743);
#239=VERTEX_POINT('',#748);
#240=VERTEX_POINT('',#750);
#241=VERTEX_POINT('',#755);
#242=VERTEX_POINT('',#757);
#243=VERTEX_POINT('',#762);
#244=VERTEX_POINT('',#764);
#245=VERTEX_POINT('',#769);
#246=VERTEX_POINT('',#771);
#247=VERTEX_POINT('',#776);
#248=VERTEX_POINT('',#777);
#249=VERTEX_POINT('',#779);
#250=VERTEX_POINT('',#781);
#251=VERTEX_POINT('',#783);
#252=VERTEX_POINT('',#785);
#253=VERTEX_POINT('',#789);
#254=VERTEX_POINT('',#791);
#255=VERTEX_POINT('',#795);
#256=VERTEX_POINT('',#797);
#257=VERTEX_POINT('',#799);
#258=VERTEX_POINT('',#801);
#259=VERTEX_POINT('',#803);
#260=VERTEX_POINT('',#805);
#261=VERTEX_POINT('',#809);
#262=VERTEX_POINT('',#810);
#263=VERTEX_POINT('',#815);
#264=VERTEX_POINT('',#819);
#265=VERTEX_POINT('',#823);
#266=VERTEX_POINT('',#829);
#267=VERTEX_POINT('',#833);
#268=VERTEX_POINT('',#837);
#269=EDGE_CURVE('',#227,#227,#207,.T.);
#270=EDGE_CURVE('',#227,#228,#121,.T.);
#271=EDGE_CURVE('',#228,#228,#208,.T.);
#272=EDGE_CURVE('',#229,#229,#209,.T.);
#273=EDGE_CURVE('',#229,#230,#122,.T.);
#274=EDGE_CURVE('',#230,#230,#210,.T.);
#275=EDGE_CURVE('',#231,#231,#211,.T.);
#276=EDGE_CURVE('',#231,#232,#123,.T.);
#277=EDGE_CURVE('',#232,#232,#212,.T.);
#278=EDGE_CURVE('',#233,#233,#213,.T.);
#279=EDGE_CURVE('',#233,#234,#124,.T.);
#280=EDGE_CURVE('',#234,#234,#214,.T.);
#281=EDGE_CURVE('',#235,#235,#215,.T.);
#282=EDGE_CURVE('',#235,#236,#125,.T.);
#283=EDGE_CURVE('',#236,#236,#216,.T.);
#284=EDGE_CURVE('',#237,#237,#217,.T.);
#285=EDGE_CURVE('',#237,#238,#126,.T.);
#286=EDGE_CURVE('',#238,#238,#218,.T.);
#287=EDGE_CURVE('',#239,#239,#219,.T.);
#288=EDGE_CURVE('',#239,#240,#127,.T.);
#289=EDGE_CURVE('',#240,#240,#220,.T.);
#290=EDGE_CURVE('',#241,#241,#221,.T.);
#291=EDGE_CURVE('',#241,#242,#128,.T.);
#292=EDGE_CURVE('',#242,#242,#222,.T.);
#293=EDGE_CURVE('',#243,#243,#223,.T.);
#294=EDGE_CURVE('',#243,#244,#129,.T.);
#295=EDGE_CURVE('',#244,#244,#224,.T.);
#296=EDGE_CURVE('',#245,#245,#225,.T.);
#297=EDGE_CURVE('',#245,#246,#130,.T.);
#298=EDGE_CURVE('',#246,#246,#226,.T.);
#299=EDGE_CURVE('',#247,#248,#131,.T.);
#300=EDGE_CURVE('',#249,#248,#132,.T.);
#301=EDGE_CURVE('',#250,#249,#133,.T.);
#302=EDGE_CURVE('',#250,#251,#134,.T.);
#303=EDGE_CURVE('',#251,#252,#135,.T.);
#304=EDGE_CURVE('',#247,#252,#136,.T.);
#305=EDGE_CURVE('',#251,#253,#137,.T.);
#306=EDGE_CURVE('',#253,#254,#138,.T.);
#307=EDGE_CURVE('',#252,#254,#139,.T.);
#308=EDGE_CURVE('',#255,#253,#140,.T.);
#309=EDGE_CURVE('',#255,#256,#141,.T.);
#310=EDGE_CURVE('',#256,#257,#142,.T.);
#311=EDGE_CURVE('',#257,#258,#143,.T.);
#312=EDGE_CURVE('',#259,#258,#144,.T.);
#313=EDGE_CURVE('',#260,#259,#145,.T.);
#314=EDGE_CURVE('',#254,#260,#146,.T.);
#315=EDGE_CURVE('',#261,#262,#147,.T.);
#316=EDGE_CURVE('',#258,#261,#148,.T.);
#317=EDGE_CURVE('',#262,#257,#149,.T.);
#318=EDGE_CURVE('',#263,#261,#150,.T.);
#319=EDGE_CURVE('',#263,#259,#151,.T.);
#320=EDGE_CURVE('',#262,#264,#152,.T.);
#321=EDGE_CURVE('',#256,#264,#153,.T.);
#322=EDGE_CURVE('',#265,#263,#154,.T.);
#323=EDGE_CURVE('',#248,#265,#155,.T.);
#324=EDGE_CURVE('',#247,#260,#156,.T.);
#325=EDGE_CURVE('',#264,#266,#157,.T.);
#326=EDGE_CURVE('',#266,#255,#158,.T.);
#327=EDGE_CURVE('',#266,#267,#159,.T.);
#328=EDGE_CURVE('',#267,#250,#160,.T.);
#329=EDGE_CURVE('',#267,#268,#161,.T.);
#330=EDGE_CURVE('',#249,#268,#162,.T.);
#331=EDGE_CURVE('',#268,#265,#163,.T.);
#332=ORIENTED_EDGE('',*,*,#269,.F.);
#333=ORIENTED_EDGE('',*,*,#270,.T.);
#334=ORIENTED_EDGE('',*,*,#271,.F.);
#335=ORIENTED_EDGE('',*,*,#270,.F.);
#336=ORIENTED_EDGE('',*,*,#272,.F.);
#337=ORIENTED_EDGE('',*,*,#273,.T.);
#338=ORIENTED_EDGE('',*,*,#274,.F.);
#339=ORIENTED_EDGE('',*,*,#273,.F.);
#340=ORIENTED_EDGE('',*,*,#275,.F.);
#341=ORIENTED_EDGE('',*,*,#276,.T.);
#342=ORIENTED_EDGE('',*,*,#277,.F.);
#343=ORIENTED_EDGE('',*,*,#276,.F.);
#344=ORIENTED_EDGE('',*,*,#278,.F.);
#345=ORIENTED_EDGE('',*,*,#279,.T.);
#346=ORIENTED_EDGE('',*,*,#280,.T.);
#347=ORIENTED_EDGE('',*,*,#279,.F.);
#348=ORIENTED_EDGE('',*,*,#280,.F.);
#349=ORIENTED_EDGE('',*,*,#281,.F.);
#350=ORIENTED_EDGE('',*,*,#282,.T.);
#351=ORIENTED_EDGE('',*,*,#283,.T.);
#352=ORIENTED_EDGE('',*,*,#282,.F.);
#353=ORIENTED_EDGE('',*,*,#283,.F.);
#354=ORIENTED_EDGE('',*,*,#284,.F.);
#355=ORIENTED_EDGE('',*,*,#285,.T.);
#356=ORIENTED_EDGE('',*,*,#286,.T.);
#357=ORIENTED_EDGE('',*,*,#285,.F.);
#358=ORIENTED_EDGE('',*,*,#286,.F.);
#359=ORIENTED_EDGE('',*,*,#287,.F.);
#360=ORIENTED_EDGE('',*,*,#288,.T.);
#361=ORIENTED_EDGE('',*,*,#289,.T.);
#362=ORIENTED_EDGE('',*,*,#288,.F.);
#363=ORIENTED_EDGE('',*,*,#289,.F.);
#364=ORIENTED_EDGE('',*,*,#290,.F.);
#365=ORIENTED_EDGE('',*,*,#291,.T.);
#366=ORIENTED_EDGE('',*,*,#292,.T.);
#367=ORIENTED_EDGE('',*,*,#291,.F.);
#368=ORIENTED_EDGE('',*,*,#292,.F.);
#369=ORIENTED_EDGE('',*,*,#293,.F.);
#370=ORIENTED_EDGE('',*,*,#294,.T.);
#371=ORIENTED_EDGE('',*,*,#295,.T.);
#372=ORIENTED_EDGE('',*,*,#294,.F.);
#373=ORIENTED_EDGE('',*,*,#295,.F.);
#374=ORIENTED_EDGE('',*,*,#296,.F.);
#375=ORIENTED_EDGE('',*,*,#297,.T.);
#376=ORIENTED_EDGE('',*,*,#298,.T.);
#377=ORIENTED_EDGE('',*,*,#297,.F.);
#378=ORIENTED_EDGE('',*,*,#298,.F.);
#379=ORIENTED_EDGE('',*,*,#299,.T.);
#380=ORIENTED_EDGE('',*,*,#300,.F.);
#381=ORIENTED_EDGE('',*,*,#301,.F.);
#382=ORIENTED_EDGE('',*,*,#302,.T.);
#383=ORIENTED_EDGE('',*,*,#303,.T.);
#384=ORIENTED_EDGE('',*,*,#304,.F.);
#385=ORIENTED_EDGE('',*,*,#303,.F.);
#386=ORIENTED_EDGE('',*,*,#305,.T.);
#387=ORIENTED_EDGE('',*,*,#306,.T.);
#388=ORIENTED_EDGE('',*,*,#307,.F.);
#389=ORIENTED_EDGE('',*,*,#306,.F.);
#390=ORIENTED_EDGE('',*,*,#308,.F.);
#391=ORIENTED_EDGE('',*,*,#309,.T.);
#392=ORIENTED_EDGE('',*,*,#310,.T.);
#393=ORIENTED_EDGE('',*,*,#311,.T.);
#394=ORIENTED_EDGE('',*,*,#312,.F.);
#395=ORIENTED_EDGE('',*,*,#313,.F.);
#396=ORIENTED_EDGE('',*,*,#314,.F.);
#397=ORIENTED_EDGE('',*,*,#315,.F.);
#398=ORIENTED_EDGE('',*,*,#316,.F.);
#399=ORIENTED_EDGE('',*,*,#311,.F.);
#400=ORIENTED_EDGE('',*,*,#317,.F.);
#401=ORIENTED_EDGE('',*,*,#318,.F.);
#402=ORIENTED_EDGE('',*,*,#319,.T.);
#403=ORIENTED_EDGE('',*,*,#312,.T.);
#404=ORIENTED_EDGE('',*,*,#316,.T.);
#405=ORIENTED_EDGE('',*,*,#274,.T.);
#406=ORIENTED_EDGE('',*,*,#277,.T.);
#407=ORIENTED_EDGE('',*,*,#320,.F.);
#408=ORIENTED_EDGE('',*,*,#317,.T.);
#409=ORIENTED_EDGE('',*,*,#310,.F.);
#410=ORIENTED_EDGE('',*,*,#321,.T.);
#411=ORIENTED_EDGE('',*,*,#269,.T.);
#412=ORIENTED_EDGE('',*,*,#322,.F.);
#413=ORIENTED_EDGE('',*,*,#323,.F.);
#414=ORIENTED_EDGE('',*,*,#299,.F.);
#415=ORIENTED_EDGE('',*,*,#324,.T.);
#416=ORIENTED_EDGE('',*,*,#313,.T.);
#417=ORIENTED_EDGE('',*,*,#319,.F.);
#418=ORIENTED_EDGE('',*,*,#304,.T.);
#419=ORIENTED_EDGE('',*,*,#307,.T.);
#420=ORIENTED_EDGE('',*,*,#314,.T.);
#421=ORIENTED_EDGE('',*,*,#324,.F.);
#422=ORIENTED_EDGE('',*,*,#325,.F.);
#423=ORIENTED_EDGE('',*,*,#321,.F.);
#424=ORIENTED_EDGE('',*,*,#309,.F.);
#425=ORIENTED_EDGE('',*,*,#326,.F.);
#426=ORIENTED_EDGE('',*,*,#327,.F.);
#427=ORIENTED_EDGE('',*,*,#326,.T.);
#428=ORIENTED_EDGE('',*,*,#308,.T.);
#429=ORIENTED_EDGE('',*,*,#305,.F.);
#430=ORIENTED_EDGE('',*,*,#302,.F.);
#431=ORIENTED_EDGE('',*,*,#328,.F.);
#432=ORIENTED_EDGE('',*,*,#271,.T.);
#433=ORIENTED_EDGE('',*,*,#329,.F.);
#434=ORIENTED_EDGE('',*,*,#328,.T.);
#435=ORIENTED_EDGE('',*,*,#301,.T.);
#436=ORIENTED_EDGE('',*,*,#330,.T.);
#437=ORIENTED_EDGE('',*,*,#331,.F.);
#438=ORIENTED_EDGE('',*,*,#330,.F.);
#439=ORIENTED_EDGE('',*,*,#300,.T.);
#440=ORIENTED_EDGE('',*,*,#323,.T.);
#441=ORIENTED_EDGE('',*,*,#272,.T.);
#442=ORIENTED_EDGE('',*,*,#275,.T.);
#443=ORIENTED_EDGE('',*,*,#325,.T.);
#444=ORIENTED_EDGE('',*,*,#327,.T.);
#445=ORIENTED_EDGE('',*,*,#329,.T.);
#446=ORIENTED_EDGE('',*,*,#331,.T.);
#447=ORIENTED_EDGE('',*,*,#322,.T.);
#448=ORIENTED_EDGE('',*,*,#318,.T.);
#449=ORIENTED_EDGE('',*,*,#315,.T.);
#450=ORIENTED_EDGE('',*,*,#320,.T.);
#451=ORIENTED_EDGE('',*,*,#296,.T.);
#452=ORIENTED_EDGE('',*,*,#293,.T.);
#453=ORIENTED_EDGE('',*,*,#290,.T.);
#454=ORIENTED_EDGE('',*,*,#287,.T.);
#455=ORIENTED_EDGE('',*,*,#284,.T.);
#456=ORIENTED_EDGE('',*,*,#281,.T.);
#457=ORIENTED_EDGE('',*,*,#278,.T.);
#458=CYLINDRICAL_SURFACE('',#512,15.5);
#459=CYLINDRICAL_SURFACE('',#515,15.5);
#460=CYLINDRICAL_SURFACE('',#518,2.5);
#461=CYLINDRICAL_SURFACE('',#521,1.5);
#462=CYLINDRICAL_SURFACE('',#525,1.5);
#463=CYLINDRICAL_SURFACE('',#529,1.5);
#464=CYLINDRICAL_SURFACE('',#533,1.5);
#465=CYLINDRICAL_SURFACE('',#537,1.5);
#466=CYLINDRICAL_SURFACE('',#541,1.49999999999999);
#467=CYLINDRICAL_SURFACE('',#545,1.5);
#468=ADVANCED_FACE('',(#48),#458,.F.);
#469=ADVANCED_FACE('',(#49),#459,.F.);
#470=ADVANCED_FACE('',(#50),#460,.F.);
#471=ADVANCED_FACE('',(#51),#461,.F.);
#472=ADVANCED_FACE('',(#52),#28,.T.);
#473=ADVANCED_FACE('',(#53),#462,.F.);
#474=ADVANCED_FACE('',(#54),#29,.T.);
#475=ADVANCED_FACE('',(#55),#463,.F.);
#476=ADVANCED_FACE('',(#56),#30,.T.);
#477=ADVANCED_FACE('',(#57),#464,.F.);
#478=ADVANCED_FACE('',(#58),#31,.T.);
#479=ADVANCED_FACE('',(#59),#465,.F.);
#480=ADVANCED_FACE('',(#60),#32,.T.);
#481=ADVANCED_FACE('',(#61),#466,.F.);
#482=ADVANCED_FACE('',(#62),#33,.T.);
#483=ADVANCED_FACE('',(#63),#467,.F.);
#484=ADVANCED_FACE('',(#64),#34,.T.);
#485=ADVANCED_FACE('',(#65),#35,.T.);
#486=ADVANCED_FACE('',(#66),#36,.T.);
#487=ADVANCED_FACE('',(#67),#37,.T.);
#488=ADVANCED_FACE('',(#68),#38,.F.);
#489=ADVANCED_FACE('',(#69,#15,#16),#39,.F.);
#490=ADVANCED_FACE('',(#70,#17),#40,.F.);
#491=ADVANCED_FACE('',(#71),#41,.F.);
#492=ADVANCED_FACE('',(#72),#42,.T.);
#493=ADVANCED_FACE('',(#73),#43,.F.);
#494=ADVANCED_FACE('',(#74,#18),#44,.T.);
#495=ADVANCED_FACE('',(#75),#45,.F.);
#496=ADVANCED_FACE('',(#76,#19,#20),#46,.T.);
#497=ADVANCED_FACE('',(#77,#21,#22,#23,#24,#25,#26,#27),#47,.T.);
#498=CLOSED_SHELL('',(#468,#469,#470,#471,#472,#473,#474,#475,#476,#477,
#478,#479,#480,#481,#482,#483,#484,#485,#486,#487,#488,#489,#490,#491,#492,
#493,#494,#495,#496,#497));
#499=DERIVED_UNIT_ELEMENT(#501,1.);
#500=DERIVED_UNIT_ELEMENT(#848,-3.);
#501=(
MASS_UNIT()
NAMED_UNIT(*)
SI_UNIT(.KILO.,.GRAM.)
);
#502=DERIVED_UNIT((#499,#500));
#503=MEASURE_REPRESENTATION_ITEM('density measure',
POSITIVE_RATIO_MEASURE(7850.),#502);
#504=PROPERTY_DEFINITION_REPRESENTATION(#509,#506);
#505=PROPERTY_DEFINITION_REPRESENTATION(#510,#507);
#506=REPRESENTATION('material name',(#508),#845);
#507=REPRESENTATION('density',(#503),#845);
#508=DESCRIPTIVE_REPRESENTATION_ITEM('\X2\92FC\X0\','\X2\92FC\X0\');
#509=PROPERTY_DEFINITION('material property','material name',#855);
#510=PROPERTY_DEFINITION('material property','density of part',#855);
#511=AXIS2_PLACEMENT_3D('',#707,#562,#563);
#512=AXIS2_PLACEMENT_3D('',#708,#564,#565);
#513=AXIS2_PLACEMENT_3D('',#710,#566,#567);
#514=AXIS2_PLACEMENT_3D('',#713,#569,#570);
#515=AXIS2_PLACEMENT_3D('',#714,#571,#572);
#516=AXIS2_PLACEMENT_3D('',#716,#573,#574);
#517=AXIS2_PLACEMENT_3D('',#719,#576,#577);
#518=AXIS2_PLACEMENT_3D('',#720,#578,#579);
#519=AXIS2_PLACEMENT_3D('',#722,#580,#581);
#520=AXIS2_PLACEMENT_3D('',#725,#583,#584);
#521=AXIS2_PLACEMENT_3D('',#726,#585,#586);
#522=AXIS2_PLACEMENT_3D('',#728,#587,#588);
#523=AXIS2_PLACEMENT_3D('',#731,#590,#591);
#524=AXIS2_PLACEMENT_3D('',#732,#592,#593);
#525=AXIS2_PLACEMENT_3D('',#733,#594,#595);
#526=AXIS2_PLACEMENT_3D('',#735,#596,#597);
#527=AXIS2_PLACEMENT_3D('',#738,#599,#600);
#528=AXIS2_PLACEMENT_3D('',#739,#601,#602);
#529=AXIS2_PLACEMENT_3D('',#740,#603,#604);
#530=AXIS2_PLACEMENT_3D('',#742,#605,#606);
#531=AXIS2_PLACEMENT_3D('',#745,#608,#609);
#532=AXIS2_PLACEMENT_3D('',#746,#610,#611);
#533=AXIS2_PLACEMENT_3D('',#747,#612,#613);
#534=AXIS2_PLACEMENT_3D('',#749,#614,#615);
#535=AXIS2_PLACEMENT_3D('',#752,#617,#618);
#536=AXIS2_PLACEMENT_3D('',#753,#619,#620);
#537=AXIS2_PLACEMENT_3D('',#754,#621,#622);
#538=AXIS2_PLACEMENT_3D('',#756,#623,#624);
#539=AXIS2_PLACEMENT_3D('',#759,#626,#627);
#540=AXIS2_PLACEMENT_3D('',#760,#628,#629);
#541=AXIS2_PLACEMENT_3D('',#761,#630,#631);
#542=AXIS2_PLACEMENT_3D('',#763,#632,#633);
#543=AXIS2_PLACEMENT_3D('',#766,#635,#636);
#544=AXIS2_PLACEMENT_3D('',#767,#637,#638);
#545=AXIS2_PLACEMENT_3D('',#768,#639,#640);
#546=AXIS2_PLACEMENT_3D('',#770,#641,#642);
#547=AXIS2_PLACEMENT_3D('',#773,#644,#645);
#548=AXIS2_PLACEMENT_3D('',#774,#646,#647);
#549=AXIS2_PLACEMENT_3D('',#775,#648,#649);
#550=AXIS2_PLACEMENT_3D('',#788,#656,#657);
#551=AXIS2_PLACEMENT_3D('',#794,#661,#662);
#552=AXIS2_PLACEMENT_3D('',#808,#670,#671);
#553=AXIS2_PLACEMENT_3D('',#814,#675,#676);
#554=AXIS2_PLACEMENT_3D('',#818,#679,#680);
#555=AXIS2_PLACEMENT_3D('',#822,#683,#684);
#556=AXIS2_PLACEMENT_3D('',#827,#688,#689);
#557=AXIS2_PLACEMENT_3D('',#828,#690,#691);
#558=AXIS2_PLACEMENT_3D('',#832,#694,#695);
#559=AXIS2_PLACEMENT_3D('',#836,#698,#699);
#560=AXIS2_PLACEMENT_3D('',#840,#702,#703);
#561=AXIS2_PLACEMENT_3D('',#842,#705,#706);
#562=DIRECTION('axis',(0.,0.,1.));
#563=DIRECTION('refdir',(1.,0.,0.));
#564=DIRECTION('center_axis',(0.,-1.,0.));
#565=DIRECTION('ref_axis',(-1.,0.,0.));
#566=DIRECTION('center_axis',(0.,-1.,0.));
#567=DIRECTION('ref_axis',(-1.,0.,0.));
#568=DIRECTION('',(0.,-1.,0.));
#569=DIRECTION('center_axis',(0.,1.,0.));
#570=DIRECTION('ref_axis',(-1.,0.,0.));
#571=DIRECTION('center_axis',(0.,-1.,0.));
#572=DIRECTION('ref_axis',(-1.,0.,0.));
#573=DIRECTION('center_axis',(0.,-1.,0.));
#574=DIRECTION('ref_axis',(-1.,0.,0.));
#575=DIRECTION('',(0.,-1.,0.));
#576=DIRECTION('center_axis',(3.81374321436122E-17,1.,0.));
#577=DIRECTION('ref_axis',(-1.,0.,0.));
#578=DIRECTION('center_axis',(0.,-1.,0.));
#579=DIRECTION('ref_axis',(-1.,0.,0.));
#580=DIRECTION('center_axis',(0.,-1.,0.));
#581=DIRECTION('ref_axis',(-1.,0.,0.));
#582=DIRECTION('',(0.,-1.,0.));
#583=DIRECTION('center_axis',(3.81374321436122E-17,1.,0.));
#584=DIRECTION('ref_axis',(-1.,0.,0.));
#585=DIRECTION('center_axis',(-1.,0.,0.));
#586=DIRECTION('ref_axis',(0.,1.,0.));
#587=DIRECTION('center_axis',(-1.,0.,0.));
#588=DIRECTION('ref_axis',(0.,1.,0.));
#589=DIRECTION('',(-1.,0.,0.));
#590=DIRECTION('center_axis',(-1.,0.,0.));
#591=DIRECTION('ref_axis',(0.,1.,0.));
#592=DIRECTION('center_axis',(1.,0.,0.));
#593=DIRECTION('ref_axis',(0.,1.,0.));
#594=DIRECTION('center_axis',(-1.,0.,0.));
#595=DIRECTION('ref_axis',(0.,1.,0.));
#596=DIRECTION('center_axis',(-1.,0.,0.));
#597=DIRECTION('ref_axis',(0.,1.,0.));
#598=DIRECTION('',(-1.,0.,0.));
#599=DIRECTION('center_axis',(-1.,0.,0.));
#600=DIRECTION('ref_axis',(0.,1.,0.));
#601=DIRECTION('center_axis',(1.,0.,0.));
#602=DIRECTION('ref_axis',(0.,1.,0.));
#603=DIRECTION('center_axis',(-1.,0.,0.));
#604=DIRECTION('ref_axis',(0.,1.,0.));
#605=DIRECTION('center_axis',(-1.,0.,0.));
#606=DIRECTION('ref_axis',(0.,1.,0.));
#607=DIRECTION('',(-1.,0.,0.));
#608=DIRECTION('center_axis',(-1.,0.,0.));
#609=DIRECTION('ref_axis',(0.,1.,0.));
#610=DIRECTION('center_axis',(1.,0.,0.));
#611=DIRECTION('ref_axis',(0.,1.,0.));
#612=DIRECTION('center_axis',(-1.,0.,0.));
#613=DIRECTION('ref_axis',(0.,1.,0.));
#614=DIRECTION('center_axis',(-1.,0.,0.));
#615=DIRECTION('ref_axis',(0.,1.,0.));
#616=DIRECTION('',(-1.,0.,0.));
#617=DIRECTION('center_axis',(-1.,0.,0.));
#618=DIRECTION('ref_axis',(0.,1.,0.));
#619=DIRECTION('center_axis',(1.,0.,0.));
#620=DIRECTION('ref_axis',(0.,1.,0.));
#621=DIRECTION('center_axis',(-1.,0.,0.));
#622=DIRECTION('ref_axis',(0.,1.,0.));
#623=DIRECTION('center_axis',(-1.,0.,0.));
#624=DIRECTION('ref_axis',(0.,1.,0.));
#625=DIRECTION('',(-1.,0.,0.));
#626=DIRECTION('center_axis',(-1.,0.,0.));
#627=DIRECTION('ref_axis',(0.,1.,0.));
#628=DIRECTION('center_axis',(1.,0.,0.));
#629=DIRECTION('ref_axis',(0.,1.,0.));
#630=DIRECTION('center_axis',(-1.,0.,0.));
#631=DIRECTION('ref_axis',(0.,1.,0.));
#632=DIRECTION('center_axis',(-1.,0.,0.));
#633=DIRECTION('ref_axis',(0.,1.,0.));
#634=DIRECTION('',(-1.,0.,0.));
#635=DIRECTION('center_axis',(-1.,0.,0.));
#636=DIRECTION('ref_axis',(0.,1.,0.));
#637=DIRECTION('center_axis',(1.,0.,0.));
#638=DIRECTION('ref_axis',(0.,1.,0.));
#639=DIRECTION('center_axis',(-1.,0.,0.));
#640=DIRECTION('ref_axis',(0.,1.,0.));
#641=DIRECTION('center_axis',(-1.,0.,0.));
#642=DIRECTION('ref_axis',(0.,1.,0.));
#643=DIRECTION('',(-1.,0.,0.));
#644=DIRECTION('center_axis',(-1.,0.,0.));
#645=DIRECTION('ref_axis',(0.,1.,0.));
#646=DIRECTION('center_axis',(1.,0.,0.));
#647=DIRECTION('ref_axis',(0.,1.,0.));
#648=DIRECTION('center_axis',(-1.,0.,0.));
#649=DIRECTION('ref_axis',(0.,-1.,0.));
#650=DIRECTION('',(0.,1.,0.));
#651=DIRECTION('',(0.,0.,1.));
#652=DIRECTION('',(0.,1.,0.));
#653=DIRECTION('',(0.,0.,1.));
#654=DIRECTION('',(0.,1.,0.));
#655=DIRECTION('',(0.,0.,1.));
#656=DIRECTION('center_axis',(0.,0.,1.));
#657=DIRECTION('ref_axis',(1.,0.,0.));
#658=DIRECTION('',(1.,0.,0.));
#659=DIRECTION('',(0.,1.,0.));
#660=DIRECTION('',(1.,0.,0.));
#661=DIRECTION('center_axis',(1.,0.,0.));
#662=DIRECTION('ref_axis',(0.,1.,0.));
#663=DIRECTION('',(0.,0.,1.));
#664=DIRECTION('',(0.,1.,0.));
#665=DIRECTION('',(0.,0.,-1.));
#666=DIRECTION('',(0.,1.,0.));
#667=DIRECTION('',(0.,0.,-1.));
#668=DIRECTION('',(0.,-1.,0.));
#669=DIRECTION('',(0.,0.,-1.));
#670=DIRECTION('center_axis',(0.,0.,-1.));
#671=DIRECTION('ref_axis',(-1.,0.,0.));
#672=DIRECTION('',(0.,-1.,0.));
#673=DIRECTION('',(1.,-3.81374321436122E-17,0.));
#674=DIRECTION('',(-1.,0.,0.));
#675=DIRECTION('center_axis',(3.81374321436122E-17,1.,0.));
#676=DIRECTION('ref_axis',(1.,-3.81374321436122E-17,0.));
#677=DIRECTION('',(0.,0.,-1.));
#678=DIRECTION('',(-1.,3.81374321436122E-17,0.));
#679=DIRECTION('center_axis',(0.,-1.,0.));
#680=DIRECTION('ref_axis',(-1.,0.,0.));
#681=DIRECTION('',(0.,0.,1.));
#682=DIRECTION('',(1.,0.,0.));
#683=DIRECTION('center_axis',(0.,0.,-1.));
#684=DIRECTION('ref_axis',(-1.,0.,0.));
#685=DIRECTION('',(0.,-1.,0.));
#686=DIRECTION('',(1.,0.,0.));
#687=DIRECTION('',(1.,0.,0.));
#688=DIRECTION('center_axis',(0.,1.,0.));
#689=DIRECTION('ref_axis',(0.,0.,1.));
#690=DIRECTION('center_axis',(0.,0.,-1.));
#691=DIRECTION('ref_axis',(-1.,0.,0.));
#692=DIRECTION('',(0.,-1.,0.));
#693=DIRECTION('',(-1.,0.,0.));
#694=DIRECTION('center_axis',(0.,-1.,0.));
#695=DIRECTION('ref_axis',(1.,0.,0.));
#696=DIRECTION('',(0.,0.,-1.));
#697=DIRECTION('',(-1.,0.,0.));
#698=DIRECTION('center_axis',(0.,0.,1.));
#699=DIRECTION('ref_axis',(1.,0.,0.));
#700=DIRECTION('',(0.,1.,0.));
#701=DIRECTION('',(1.,0.,0.));
#702=DIRECTION('center_axis',(0.,1.,0.));
#703=DIRECTION('ref_axis',(-1.,0.,0.));
#704=DIRECTION('',(0.,0.,1.));
#705=DIRECTION('center_axis',(1.,0.,0.));
#706=DIRECTION('ref_axis',(0.,0.,-1.));
#707=CARTESIAN_POINT('',(0.,0.,0.));
#708=CARTESIAN_POINT('Origin',(36.,0.,21.));
#709=CARTESIAN_POINT('',(51.5,-97.5,21.));
#710=CARTESIAN_POINT('Origin',(36.,-97.5,21.));
#711=CARTESIAN_POINT('',(51.5,-102.5,21.));
#712=CARTESIAN_POINT('',(51.5,0.,21.));
#713=CARTESIAN_POINT('Origin',(36.,-102.5,21.));
#714=CARTESIAN_POINT('Origin',(36.,0.,21.));
#715=CARTESIAN_POINT('',(51.5,0.,21.));
#716=CARTESIAN_POINT('Origin',(36.,0.,21.));
#717=CARTESIAN_POINT('',(51.5,-5.,21.));
#718=CARTESIAN_POINT('',(51.5,0.,21.));
#719=CARTESIAN_POINT('Origin',(36.,-5.,21.));
#720=CARTESIAN_POINT('Origin',(65.,0.,25.));
#721=CARTESIAN_POINT('',(67.5,0.,25.));
#722=CARTESIAN_POINT('Origin',(65.,0.,25.));
#723=CARTESIAN_POINT('',(67.5,-5.,25.));
#724=CARTESIAN_POINT('',(67.5,0.,25.));
#725=CARTESIAN_POINT('Origin',(65.,-5.,25.));
#726=CARTESIAN_POINT('Origin',(145.,-51.25,2.5));
#727=CARTESIAN_POINT('',(145.,-52.75,2.5));
#728=CARTESIAN_POINT('Origin',(145.,-51.25,2.5));
#729=CARTESIAN_POINT('',(139.,-52.75,2.5));
#730=CARTESIAN_POINT('',(145.,-52.75,2.5));
#731=CARTESIAN_POINT('Origin',(139.,-51.25,2.5));
#732=CARTESIAN_POINT('Origin',(139.,-51.25,2.5));
#733=CARTESIAN_POINT('Origin',(145.,-100.000001490116,62.5));
#734=CARTESIAN_POINT('',(145.,-101.500001490116,62.5));
#735=CARTESIAN_POINT('Origin',(145.,-100.000001490116,62.5));
#736=CARTESIAN_POINT('',(139.,-101.500001490116,62.5));
#737=CARTESIAN_POINT('',(145.,-101.500001490116,62.5));
#738=CARTESIAN_POINT('Origin',(139.,-100.000001490116,62.5));
#739=CARTESIAN_POINT('Origin',(139.,-100.000001490116,62.5));
#740=CARTESIAN_POINT('Origin',(145.,-2.5,62.5));
#741=CARTESIAN_POINT('',(145.,-4.,62.5));
#742=CARTESIAN_POINT('Origin',(145.,-2.5,62.5));
#743=CARTESIAN_POINT('',(139.,-4.,62.5));
#744=CARTESIAN_POINT('',(145.,-4.,62.5));
#745=CARTESIAN_POINT('Origin',(139.,-2.5,62.5));
#746=CARTESIAN_POINT('Origin',(139.,-2.5,62.5));
#747=CARTESIAN_POINT('Origin',(145.,-2.5,2.5));
#748=CARTESIAN_POINT('',(145.,-4.,2.5));
#749=CARTESIAN_POINT('Origin',(145.,-2.5,2.5));
#750=CARTESIAN_POINT('',(139.,-4.,2.5));
#751=CARTESIAN_POINT('',(145.,-4.,2.5));
#752=CARTESIAN_POINT('Origin',(139.,-2.5,2.5));
#753=CARTESIAN_POINT('Origin',(139.,-2.5,2.5));
#754=CARTESIAN_POINT('Origin',(145.,-100.,32.5));
#755=CARTESIAN_POINT('',(145.,-101.5,32.5));
#756=CARTESIAN_POINT('Origin',(145.,-100.,32.5));
#757=CARTESIAN_POINT('',(139.,-101.5,32.5));
#758=CARTESIAN_POINT('',(145.,-101.5,32.5));
#759=CARTESIAN_POINT('Origin',(139.,-100.,32.5));
#760=CARTESIAN_POINT('Origin',(139.,-100.,32.5));
#761=CARTESIAN_POINT('Origin',(145.,-100.,2.5));
#762=CARTESIAN_POINT('',(145.,-101.5,2.5));
#763=CARTESIAN_POINT('Origin',(145.,-100.,2.5));
#764=CARTESIAN_POINT('',(139.,-101.5,2.5));
#765=CARTESIAN_POINT('',(145.,-101.5,2.5));
#766=CARTESIAN_POINT('Origin',(139.,-100.,2.5));
#767=CARTESIAN_POINT('Origin',(139.,-100.,2.5));
#768=CARTESIAN_POINT('Origin',(145.,-2.5,32.5));
#769=CARTESIAN_POINT('',(145.,-4.,32.5));
#770=CARTESIAN_POINT('Origin',(145.,-2.5,32.5));
#771=CARTESIAN_POINT('',(139.,-4.,32.5));
#772=CARTESIAN_POINT('',(145.,-4.,32.5));
#773=CARTESIAN_POINT('Origin',(139.,-2.5,32.5));
#774=CARTESIAN_POINT('Origin',(139.,-2.5,32.5));
#775=CARTESIAN_POINT('Origin',(0.,0.,0.));
#776=CARTESIAN_POINT('',(0.,-8.94332521685082E-5,65.));
#777=CARTESIAN_POINT('',(0.,0.,65.));
#778=CARTESIAN_POINT('',(0.,-25.625,65.));
#779=CARTESIAN_POINT('',(0.,0.,0.));
#780=CARTESIAN_POINT('',(0.,0.,0.));
#781=CARTESIAN_POINT('',(0.,-102.5,0.));
#782=CARTESIAN_POINT('',(0.,-102.5,0.));
#783=CARTESIAN_POINT('',(0.,-102.5,120.));
#784=CARTESIAN_POINT('',(0.,-102.5,0.));
#785=CARTESIAN_POINT('',(0.,-8.94332521685082E-5,120.));
#786=CARTESIAN_POINT('',(0.,-0.341089433252169,120.));
#787=CARTESIAN_POINT('',(0.,-8.94332521685082E-5,35.));
#788=CARTESIAN_POINT('Origin',(10.,-51.4205447166261,120.));
#789=CARTESIAN_POINT('',(20.,-102.5,120.));
#790=CARTESIAN_POINT('',(0.,-102.5,120.));
#791=CARTESIAN_POINT('',(20.,-8.94332521685082E-5,120.));
#792=CARTESIAN_POINT('',(20.,-102.5,120.));
#793=CARTESIAN_POINT('',(20.,-8.94332521685082E-5,120.));
#794=CARTESIAN_POINT('Origin',(20.,-102.5,70.));
#795=CARTESIAN_POINT('',(20.,-102.5,65.));
#796=CARTESIAN_POINT('',(20.,-102.5,35.));
#797=CARTESIAN_POINT('',(20.,-97.5,65.));
#798=CARTESIAN_POINT('',(20.,-76.875,65.));
#799=CARTESIAN_POINT('',(20.,-97.5,5.));
#800=CARTESIAN_POINT('',(20.,-97.5,70.));
#801=CARTESIAN_POINT('',(20.,-5.,5.));
#802=CARTESIAN_POINT('',(20.,-5.,5.));
#803=CARTESIAN_POINT('',(20.,-5.,65.));
#804=CARTESIAN_POINT('',(20.,-5.,70.));
#805=CARTESIAN_POINT('',(20.,-8.94332521685082E-5,65.));
#806=CARTESIAN_POINT('',(20.,-25.7955447166261,65.));
#807=CARTESIAN_POINT('',(20.,-8.94332521685082E-5,70.));
#808=CARTESIAN_POINT('Origin',(151.,-51.25,5.));
#809=CARTESIAN_POINT('',(145.,-5.,5.));
#810=CARTESIAN_POINT('',(145.,-97.5,5.));
#811=CARTESIAN_POINT('',(145.,-51.25,5.));
#812=CARTESIAN_POINT('',(282.,-5.00000000000001,5.));
#813=CARTESIAN_POINT('',(20.,-97.5,5.));
#814=CARTESIAN_POINT('Origin',(20.,-5.,70.));
#815=CARTESIAN_POINT('',(145.,-5.,65.));
#816=CARTESIAN_POINT('',(145.,-5.,65.));
#817=CARTESIAN_POINT('',(85.5,-5.,65.));
#818=CARTESIAN_POINT('Origin',(282.,-97.5,70.));
#819=CARTESIAN_POINT('',(145.,-97.5,65.));
#820=CARTESIAN_POINT('',(145.,-97.5,65.));
#821=CARTESIAN_POINT('',(216.5,-97.5,65.));
#822=CARTESIAN_POINT('Origin',(151.,-51.25,65.));
#823=CARTESIAN_POINT('',(145.,0.,65.));
#824=CARTESIAN_POINT('',(145.,-51.25,65.));
#825=CARTESIAN_POINT('',(226.5,0.,65.));
#826=CARTESIAN_POINT('',(85.5,-8.94332521728103E-5,65.));
#827=CARTESIAN_POINT('Origin',(20.,-8.94332521685082E-5,70.));
#828=CARTESIAN_POINT('Origin',(151.,-51.25,65.));
#829=CARTESIAN_POINT('',(145.,-102.5,65.));
#830=CARTESIAN_POINT('',(145.,-51.25,65.));
#831=CARTESIAN_POINT('',(75.5,-102.5,65.));
#832=CARTESIAN_POINT('Origin',(0.,-102.5,0.));
#833=CARTESIAN_POINT('',(145.,-102.5,0.));
#834=CARTESIAN_POINT('',(145.,-102.5,30.));
#835=CARTESIAN_POINT('',(302.,-102.5,0.));
#836=CARTESIAN_POINT('Origin',(151.,-51.25,0.));
#837=CARTESIAN_POINT('',(145.,0.,0.));
#838=CARTESIAN_POINT('',(145.,-51.25,0.));
#839=CARTESIAN_POINT('',(0.,0.,0.));
#840=CARTESIAN_POINT('Origin',(302.,0.,0.));
#841=CARTESIAN_POINT('',(145.,0.,30.));
#842=CARTESIAN_POINT('Origin',(145.,-51.25,60.));
#843=UNCERTAINTY_MEASURE_WITH_UNIT(LENGTH_MEASURE(0.01),#847,
'DISTANCE_ACCURACY_VALUE',
'Maximum model space distance between geometric entities at asserted c
onnectivities');
#844=UNCERTAINTY_MEASURE_WITH_UNIT(LENGTH_MEASURE(0.01),#847,
'DISTANCE_ACCURACY_VALUE',
'Maximum model space distance between geometric entities at asserted c
onnectivities');
#845=(
GEOMETRIC_REPRESENTATION_CONTEXT(3)
GLOBAL_UNCERTAINTY_ASSIGNED_CONTEXT((#843))
GLOBAL_UNIT_ASSIGNED_CONTEXT((#847,#849,#850))
REPRESENTATION_CONTEXT('','3D')
);
#846=(
GEOMETRIC_REPRESENTATION_CONTEXT(3)
GLOBAL_UNCERTAINTY_ASSIGNED_CONTEXT((#844))
GLOBAL_UNIT_ASSIGNED_CONTEXT((#847,#849,#850))
REPRESENTATION_CONTEXT('','3D')
);
#847=(
LENGTH_UNIT()
NAMED_UNIT(*)
SI_UNIT(.MILLI.,.METRE.)
);
#848=(
LENGTH_UNIT()
NAMED_UNIT(*)
SI_UNIT($,.METRE.)
);
#849=(
NAMED_UNIT(*)
PLANE_ANGLE_UNIT()
SI_UNIT($,.RADIAN.)
);
#850=(
NAMED_UNIT(*)
SI_UNIT($,.STERADIAN.)
SOLID_ANGLE_UNIT()
);
#851=SHAPE_DEFINITION_REPRESENTATION(#852,#853);
#852=PRODUCT_DEFINITION_SHAPE('',$,#855);
#853=SHAPE_REPRESENTATION('',(#511),#845);
#854=PRODUCT_DEFINITION_CONTEXT('part definition',#859,'design');
#855=PRODUCT_DEFINITION('2026-08-02-14-35-48-045',
'Fusion \X2\30B330F330DD30FC30CD30F330C8\X0\',#856,#854);
#856=PRODUCT_DEFINITION_FORMATION('',$,#861);
#857=PRODUCT_RELATED_PRODUCT_CATEGORY('Fusion \X2\30B330F330DD30FC30CD30F330C8\X0\',
'Fusion \X2\30B330F330DD30FC30CD30F330C8\X0\',(#861));
#858=APPLICATION_PROTOCOL_DEFINITION('international standard',
'automotive_design',2009,#859);
#859=APPLICATION_CONTEXT(
'Core Data for Automotive Mechanical Design Process');
#860=PRODUCT_CONTEXT('part definition',#859,'mechanical');
#861=PRODUCT('2026-08-02-14-35-48-045','Fusion \X2\30B330F330DD30FC30CD30F330C8\X0\',
$,(#860));
#862=PRESENTATION_STYLE_ASSIGNMENT((#863));
#863=SURFACE_STYLE_USAGE(.BOTH.,#864);
#864=SURFACE_SIDE_STYLE('',(#865));
#865=SURFACE_STYLE_FILL_AREA(#866);
#866=FILL_AREA_STYLE('\X2\92FC\X0\ - \X2\30B530C630F3\X0\',(#867));
#867=FILL_AREA_STYLE_COLOUR('\X2\92FC\X0\ - \X2\30B530C630F3\X0\',#868);
#868=COLOUR_RGB('\X2\92FC\X0\ - \X2\30B530C630F3\X0\',0.627450980392157,
0.627450980392157,0.627450980392157);
ENDSEC;
END-ISO-10303-21;
