ISO-10303-21;
HEADER;
/* Generated by software containing ST-Developer
 * from STEP Tools, Inc. (www.steptools.com) 
 */

FILE_DESCRIPTION(
/* description */ (''),
/* implementation_level */ '2;1');

FILE_NAME(
/* name */ '',
/* time_stamp */ '2026-08-02T14:35:31+09:00',
/* author */ (''),
/* organization */ (''),
/* preprocessor_version */ 'ST-DEVELOPER v20.1',
/* originating_system */ 'Autodesk Translation Framework v15.8.0.0',
/* authorisation */ '');

FILE_SCHEMA (('AUTOMOTIVE_DESIGN { 1 0 10303 214 3 1 1 }'));
ENDSEC;

DATA;
#10=MECHANICAL_DESIGN_GEOMETRIC_PRESENTATION_REPRESENTATION('',(#13),#1396);
#11=SHAPE_REPRESENTATION_RELATIONSHIP('SRR','None',#1403,#12);
#12=ADVANCED_BREP_SHAPE_REPRESENTATION('',(#14),#1395);
#13=STYLED_ITEM('',(#1412),#14);
#14=MANIFOLD_SOLID_BREP('\X2\30DC30C730A3\X0\1',#852);
#15=FACE_BOUND('',#154,.T.);
#16=FACE_BOUND('',#155,.T.);
#17=FACE_BOUND('',#156,.T.);
#18=FACE_BOUND('',#157,.T.);
#19=FACE_BOUND('',#158,.T.);
#20=FACE_BOUND('',#159,.T.);
#21=FACE_BOUND('',#160,.T.);
#22=FACE_BOUND('',#163,.T.);
#23=FACE_BOUND('',#164,.T.);
#24=FACE_BOUND('',#165,.T.);
#25=FACE_BOUND('',#166,.T.);
#26=FACE_BOUND('',#169,.T.);
#27=FACE_BOUND('',#170,.T.);
#28=FACE_BOUND('',#171,.T.);
#29=FACE_BOUND('',#172,.T.);
#30=FACE_BOUND('',#175,.T.);
#31=FACE_BOUND('',#176,.T.);
#32=FACE_BOUND('',#177,.T.);
#33=FACE_BOUND('',#178,.T.);
#34=FACE_BOUND('',#183,.T.);
#35=FACE_BOUND('',#184,.T.);
#36=FACE_BOUND('',#185,.T.);
#37=FACE_BOUND('',#186,.T.);
#38=PLANE('',#878);
#39=PLANE('',#879);
#40=PLANE('',#880);
#41=PLANE('',#881);
#42=PLANE('',#882);
#43=PLANE('',#883);
#44=PLANE('',#884);
#45=PLANE('',#885);
#46=PLANE('',#886);
#47=PLANE('',#887);
#48=PLANE('',#888);
#49=PLANE('',#889);
#50=PLANE('',#890);
#51=PLANE('',#891);
#52=PLANE('',#892);
#53=PLANE('',#893);
#54=PLANE('',#897);
#55=PLANE('',#901);
#56=PLANE('',#905);
#57=PLANE('',#909);
#58=PLANE('',#913);
#59=PLANE('',#917);
#60=PLANE('',#921);
#61=PLANE('',#922);
#62=PLANE('',#923);
#63=PLANE('',#924);
#64=PLANE('',#925);
#65=PLANE('',#926);
#66=PLANE('',#927);
#67=PLANE('',#928);
#68=PLANE('',#929);
#69=PLANE('',#930);
#70=PLANE('',#931);
#71=PLANE('',#932);
#72=PLANE('',#933);
#73=FACE_OUTER_BOUND('',#119,.T.);
#74=FACE_OUTER_BOUND('',#120,.T.);
#75=FACE_OUTER_BOUND('',#121,.T.);
#76=FACE_OUTER_BOUND('',#122,.T.);
#77=FACE_OUTER_BOUND('',#123,.T.);
#78=FACE_OUTER_BOUND('',#124,.T.);
#79=FACE_OUTER_BOUND('',#125,.T.);
#80=FACE_OUTER_BOUND('',#126,.T.);
#81=FACE_OUTER_BOUND('',#127,.T.);
#82=FACE_OUTER_BOUND('',#128,.T.);
#83=FACE_OUTER_BOUND('',#129,.T.);
#84=FACE_OUTER_BOUND('',#130,.T.);
#85=FACE_OUTER_BOUND('',#131,.T.);
#86=FACE_OUTER_BOUND('',#132,.T.);
#87=FACE_OUTER_BOUND('',#133,.T.);
#88=FACE_OUTER_BOUND('',#134,.T.);
#89=FACE_OUTER_BOUND('',#135,.T.);
#90=FACE_OUTER_BOUND('',#136,.T.);
#91=FACE_OUTER_BOUND('',#137,.T.);
#92=FACE_OUTER_BOUND('',#138,.T.);
#93=FACE_OUTER_BOUND('',#139,.T.);
#94=FACE_OUTER_BOUND('',#140,.T.);
#95=FACE_OUTER_BOUND('',#141,.T.);
#96=FACE_OUTER_BOUND('',#142,.T.);
#97=FACE_OUTER_BOUND('',#143,.T.);
#98=FACE_OUTER_BOUND('',#144,.T.);
#99=FACE_OUTER_BOUND('',#145,.T.);
#100=FACE_OUTER_BOUND('',#146,.T.);
#101=FACE_OUTER_BOUND('',#147,.T.);
#102=FACE_OUTER_BOUND('',#148,.T.);
#103=FACE_OUTER_BOUND('',#149,.T.);
#104=FACE_OUTER_BOUND('',#150,.T.);
#105=FACE_OUTER_BOUND('',#151,.T.);
#106=FACE_OUTER_BOUND('',#152,.T.);
#107=FACE_OUTER_BOUND('',#153,.T.);
#108=FACE_OUTER_BOUND('',#161,.T.);
#109=FACE_OUTER_BOUND('',#162,.T.);
#110=FACE_OUTER_BOUND('',#167,.T.);
#111=FACE_OUTER_BOUND('',#168,.T.);
#112=FACE_OUTER_BOUND('',#173,.T.);
#113=FACE_OUTER_BOUND('',#174,.T.);
#114=FACE_OUTER_BOUND('',#179,.T.);
#115=FACE_OUTER_BOUND('',#180,.T.);
#116=FACE_OUTER_BOUND('',#181,.T.);
#117=FACE_OUTER_BOUND('',#182,.T.);
#118=FACE_OUTER_BOUND('',#187,.T.);
#119=EDGE_LOOP('',(#573,#574,#575,#576));
#120=EDGE_LOOP('',(#577,#578,#579,#580));
#121=EDGE_LOOP('',(#581,#582,#583,#584));
#122=EDGE_LOOP('',(#585,#586,#587,#588));
#123=EDGE_LOOP('',(#589,#590,#591,#592));
#124=EDGE_LOOP('',(#593,#594,#595,#596));
#125=EDGE_LOOP('',(#597,#598,#599,#600));
#126=EDGE_LOOP('',(#601,#602,#603,#604));
#127=EDGE_LOOP('',(#605,#606,#607,#608));
#128=EDGE_LOOP('',(#609,#610,#611,#612));
#129=EDGE_LOOP('',(#613,#614,#615,#616));
#130=EDGE_LOOP('',(#617,#618,#619,#620));
#131=EDGE_LOOP('',(#621,#622,#623,#624));
#132=EDGE_LOOP('',(#625,#626,#627,#628));
#133=EDGE_LOOP('',(#629,#630,#631,#632));
#134=EDGE_LOOP('',(#633,#634,#635,#636));
#135=EDGE_LOOP('',(#637,#638,#639,#640));
#136=EDGE_LOOP('',(#641,#642,#643,#644));
#137=EDGE_LOOP('',(#645,#646,#647,#648));
#138=EDGE_LOOP('',(#649,#650,#651,#652));
#139=EDGE_LOOP('',(#653,#654,#655,#656));
#140=EDGE_LOOP('',(#657));
#141=EDGE_LOOP('',(#658,#659,#660,#661));
#142=EDGE_LOOP('',(#662));
#143=EDGE_LOOP('',(#663,#664,#665,#666));
#144=EDGE_LOOP('',(#667));
#145=EDGE_LOOP('',(#668,#669,#670,#671));
#146=EDGE_LOOP('',(#672));
#147=EDGE_LOOP('',(#673,#674,#675,#676));
#148=EDGE_LOOP('',(#677));
#149=EDGE_LOOP('',(#678,#679,#680,#681));
#150=EDGE_LOOP('',(#682));
#151=EDGE_LOOP('',(#683,#684,#685,#686));
#152=EDGE_LOOP('',(#687));
#153=EDGE_LOOP('',(#688,#689,#690,#691,#692,#693,#694,#695));
#154=EDGE_LOOP('',(#696));
#155=EDGE_LOOP('',(#697));
#156=EDGE_LOOP('',(#698));
#157=EDGE_LOOP('',(#699));
#158=EDGE_LOOP('',(#700));
#159=EDGE_LOOP('',(#701));
#160=EDGE_LOOP('',(#702));
#161=EDGE_LOOP('',(#703,#704,#705,#706));
#162=EDGE_LOOP('',(#707,#708,#709,#710));
#163=EDGE_LOOP('',(#711));
#164=EDGE_LOOP('',(#712));
#165=EDGE_LOOP('',(#713,#714,#715,#716));
#166=EDGE_LOOP('',(#717,#718,#719,#720));
#167=EDGE_LOOP('',(#721,#722,#723,#724));
#168=EDGE_LOOP('',(#725,#726,#727,#728));
#169=EDGE_LOOP('',(#729));
#170=EDGE_LOOP('',(#730));
#171=EDGE_LOOP('',(#731,#732,#733,#734));
#172=EDGE_LOOP('',(#735,#736,#737,#738));
#173=EDGE_LOOP('',(#739,#740,#741,#742));
#174=EDGE_LOOP('',(#743,#744,#745,#746,#747,#748));
#175=EDGE_LOOP('',(#749));
#176=EDGE_LOOP('',(#750));
#177=EDGE_LOOP('',(#751,#752,#753,#754));
#178=EDGE_LOOP('',(#755,#756,#757,#758));
#179=EDGE_LOOP('',(#759,#760,#761,#762,#763,#764,#765,#766));
#180=EDGE_LOOP('',(#767,#768,#769,#770));
#181=EDGE_LOOP('',(#771,#772,#773,#774));
#182=EDGE_LOOP('',(#775,#776,#777,#778,#779,#780));
#183=EDGE_LOOP('',(#781));
#184=EDGE_LOOP('',(#782));
#185=EDGE_LOOP('',(#783,#784,#785,#786));
#186=EDGE_LOOP('',(#787,#788,#789,#790));
#187=EDGE_LOOP('',(#791,#792,#793,#794));
#188=LINE('',#1166,#277);
#189=LINE('',#1172,#278);
#190=LINE('',#1178,#279);
#191=LINE('',#1184,#280);
#192=LINE('',#1189,#281);
#193=LINE('',#1191,#282);
#194=LINE('',#1193,#283);
#195=LINE('',#1194,#284);
#196=LINE('',#1198,#285);
#197=LINE('',#1200,#286);
#198=LINE('',#1202,#287);
#199=LINE('',#1203,#288);
#200=LINE('',#1206,#289);
#201=LINE('',#1208,#290);
#202=LINE('',#1209,#291);
#203=LINE('',#1212,#292);
#204=LINE('',#1214,#293);
#205=LINE('',#1215,#294);
#206=LINE('',#1218,#295);
#207=LINE('',#1220,#296);
#208=LINE('',#1221,#297);
#209=LINE('',#1223,#298);
#210=LINE('',#1224,#299);
#211=LINE('',#1227,#300);
#212=LINE('',#1229,#301);
#213=LINE('',#1230,#302);
#214=LINE('',#1232,#303);
#215=LINE('',#1233,#304);
#216=LINE('',#1237,#305);
#217=LINE('',#1239,#306);
#218=LINE('',#1241,#307);
#219=LINE('',#1242,#308);
#220=LINE('',#1246,#309);
#221=LINE('',#1248,#310);
#222=LINE('',#1250,#311);
#223=LINE('',#1251,#312);
#224=LINE('',#1254,#313);
#225=LINE('',#1256,#314);
#226=LINE('',#1257,#315);
#227=LINE('',#1260,#316);
#228=LINE('',#1262,#317);
#229=LINE('',#1263,#318);
#230=LINE('',#1266,#319);
#231=LINE('',#1268,#320);
#232=LINE('',#1269,#321);
#233=LINE('',#1271,#322);
#234=LINE('',#1272,#323);
#235=LINE('',#1275,#324);
#236=LINE('',#1277,#325);
#237=LINE('',#1278,#326);
#238=LINE('',#1280,#327);
#239=LINE('',#1281,#328);
#240=LINE('',#1286,#329);
#241=LINE('',#1293,#330);
#242=LINE('',#1300,#331);
#243=LINE('',#1307,#332);
#244=LINE('',#1314,#333);
#245=LINE('',#1321,#334);
#246=LINE('',#1328,#335);
#247=LINE('',#1334,#336);
#248=LINE('',#1336,#337);
#249=LINE('',#1338,#338);
#250=LINE('',#1340,#339);
#251=LINE('',#1342,#340);
#252=LINE('',#1344,#341);
#253=LINE('',#1346,#342);
#254=LINE('',#1347,#343);
#255=LINE('',#1350,#344);
#256=LINE('',#1352,#345);
#257=LINE('',#1353,#346);
#258=LINE('',#1356,#347);
#259=LINE('',#1357,#348);
#260=LINE('',#1360,#349);
#261=LINE('',#1361,#350);
#262=LINE('',#1364,#351);
#263=LINE('',#1365,#352);
#264=LINE('',#1368,#353);
#265=LINE('',#1369,#354);
#266=LINE('',#1372,#355);
#267=LINE('',#1374,#356);
#268=LINE('',#1376,#357);
#269=LINE('',#1377,#358);
#270=LINE('',#1380,#359);
#271=LINE('',#1381,#360);
#272=LINE('',#1384,#361);
#273=LINE('',#1385,#362);
#274=LINE('',#1388,#363);
#275=LINE('',#1389,#364);
#276=LINE('',#1391,#365);
#277=VECTOR('',#940,1.29999999999999);
#278=VECTOR('',#947,1.29999999999999);
#279=VECTOR('',#954,1.29999999999999);
#280=VECTOR('',#961,1.29999999999999);
#281=VECTOR('',#966,10.);
#282=VECTOR('',#967,10.);
#283=VECTOR('',#968,10.);
#284=VECTOR('',#969,10.);
#285=VECTOR('',#972,10.);
#286=VECTOR('',#973,10.);
#287=VECTOR('',#974,10.);
#288=VECTOR('',#975,10.);
#289=VECTOR('',#978,10.);
#290=VECTOR('',#979,10.);
#291=VECTOR('',#980,10.);
#292=VECTOR('',#983,10.);
#293=VECTOR('',#984,10.);
#294=VECTOR('',#985,10.);
#295=VECTOR('',#988,10.);
#296=VECTOR('',#989,10.);
#297=VECTOR('',#990,10.);
#298=VECTOR('',#993,10.);
#299=VECTOR('',#994,10.);
#300=VECTOR('',#997,10.);
#301=VECTOR('',#998,10.);
#302=VECTOR('',#999,10.);
#303=VECTOR('',#1002,10.);
#304=VECTOR('',#1003,10.);
#305=VECTOR('',#1006,10.);
#306=VECTOR('',#1007,10.);
#307=VECTOR('',#1008,10.);
#308=VECTOR('',#1009,10.);
#309=VECTOR('',#1012,10.);
#310=VECTOR('',#1013,10.);
#311=VECTOR('',#1014,10.);
#312=VECTOR('',#1015,10.);
#313=VECTOR('',#1018,10.);
#314=VECTOR('',#1019,10.);
#315=VECTOR('',#1020,10.);
#316=VECTOR('',#1023,10.);
#317=VECTOR('',#1024,10.);
#318=VECTOR('',#1025,10.);
#319=VECTOR('',#1028,10.);
#320=VECTOR('',#1029,10.);
#321=VECTOR('',#1030,10.);
#322=VECTOR('',#1033,10.);
#323=VECTOR('',#1034,10.);
#324=VECTOR('',#1037,10.);
#325=VECTOR('',#1038,10.);
#326=VECTOR('',#1039,10.);
#327=VECTOR('',#1042,10.);
#328=VECTOR('',#1043,10.);
#329=VECTOR('',#1048,1.25);
#330=VECTOR('',#1057,1.25);
#331=VECTOR('',#1066,1.25);
#332=VECTOR('',#1075,1.25);
#333=VECTOR('',#1084,1.25);
#334=VECTOR('',#1093,1.25);
#335=VECTOR('',#1102,1.25);
#336=VECTOR('',#1109,10.);
#337=VECTOR('',#1110,10.);
#338=VECTOR('',#1111,10.);
#339=VECTOR('',#1112,10.);
#340=VECTOR('',#1113,10.);
#341=VECTOR('',#1114,10.);
#342=VECTOR('',#1115,10.);
#343=VECTOR('',#1116,10.);
#344=VECTOR('',#1119,10.);
#345=VECTOR('',#1120,10.);
#346=VECTOR('',#1121,10.);
#347=VECTOR('',#1124,10.);
#348=VECTOR('',#1125,10.);
#349=VECTOR('',#1128,10.);
#350=VECTOR('',#1129,10.);
#351=VECTOR('',#1132,10.);
#352=VECTOR('',#1133,10.);
#353=VECTOR('',#1136,10.);
#354=VECTOR('',#1137,10.);
#355=VECTOR('',#1140,10.);
#356=VECTOR('',#1141,10.);
#357=VECTOR('',#1142,10.);
#358=VECTOR('',#1143,10.);
#359=VECTOR('',#1146,10.);
#360=VECTOR('',#1147,10.);
#361=VECTOR('',#1150,10.);
#362=VECTOR('',#1151,10.);
#363=VECTOR('',#1154,10.);
#364=VECTOR('',#1155,10.);
#365=VECTOR('',#1158,10.);
#366=CIRCLE('',#867,1.29999999999999);
#367=CIRCLE('',#868,1.29999999999999);
#368=CIRCLE('',#870,1.29999999999999);
#369=CIRCLE('',#871,1.29999999999999);
#370=CIRCLE('',#873,1.29999999999999);
#371=CIRCLE('',#874,1.29999999999999);
#372=CIRCLE('',#876,1.29999999999999);
#373=CIRCLE('',#877,1.29999999999999);
#374=CIRCLE('',#895,1.25);
#375=CIRCLE('',#896,1.25);
#376=CIRCLE('',#899,1.25);
#377=CIRCLE('',#900,1.25);
#378=CIRCLE('',#903,1.25);
#379=CIRCLE('',#904,1.25);
#380=CIRCLE('',#907,1.25);
#381=CIRCLE('',#908,1.25);
#382=CIRCLE('',#911,1.25);
#383=CIRCLE('',#912,1.25);
#384=CIRCLE('',#915,1.25);
#385=CIRCLE('',#916,1.25);
#386=CIRCLE('',#919,1.25);
#387=CIRCLE('',#920,1.25);
#388=VERTEX_POINT('',#1163);
#389=VERTEX_POINT('',#1165);
#390=VERTEX_POINT('',#1169);
#391=VERTEX_POINT('',#1171);
#392=VERTEX_POINT('',#1175);
#393=VERTEX_POINT('',#1177);
#394=VERTEX_POINT('',#1181);
#395=VERTEX_POINT('',#1183);
#396=VERTEX_POINT('',#1187);
#397=VERTEX_POINT('',#1188);
#398=VERTEX_POINT('',#1190);
#399=VERTEX_POINT('',#1192);
#400=VERTEX_POINT('',#1196);
#401=VERTEX_POINT('',#1197);
#402=VERTEX_POINT('',#1199);
#403=VERTEX_POINT('',#1201);
#404=VERTEX_POINT('',#1205);
#405=VERTEX_POINT('',#1207);
#406=VERTEX_POINT('',#1211);
#407=VERTEX_POINT('',#1213);
#408=VERTEX_POINT('',#1217);
#409=VERTEX_POINT('',#1219);
#410=VERTEX_POINT('',#1226);
#411=VERTEX_POINT('',#1228);
#412=VERTEX_POINT('',#1235);
#413=VERTEX_POINT('',#1236);
#414=VERTEX_POINT('',#1238);
#415=VERTEX_POINT('',#1240);
#416=VERTEX_POINT('',#1244);
#417=VERTEX_POINT('',#1245);
#418=VERTEX_POINT('',#1247);
#419=VERTEX_POINT('',#1249);
#420=VERTEX_POINT('',#1253);
#421=VERTEX_POINT('',#1255);
#422=VERTEX_POINT('',#1259);
#423=VERTEX_POINT('',#1261);
#424=VERTEX_POINT('',#1265);
#425=VERTEX_POINT('',#1267);
#426=VERTEX_POINT('',#1274);
#427=VERTEX_POINT('',#1276);
#428=VERTEX_POINT('',#1283);
#429=VERTEX_POINT('',#1285);
#430=VERTEX_POINT('',#1290);
#431=VERTEX_POINT('',#1292);
#432=VERTEX_POINT('',#1297);
#433=VERTEX_POINT('',#1299);
#434=VERTEX_POINT('',#1304);
#435=VERTEX_POINT('',#1306);
#436=VERTEX_POINT('',#1311);
#437=VERTEX_POINT('',#1313);
#438=VERTEX_POINT('',#1318);
#439=VERTEX_POINT('',#1320);
#440=VERTEX_POINT('',#1325);
#441=VERTEX_POINT('',#1327);
#442=VERTEX_POINT('',#1332);
#443=VERTEX_POINT('',#1333);
#444=VERTEX_POINT('',#1335);
#445=VERTEX_POINT('',#1337);
#446=VERTEX_POINT('',#1339);
#447=VERTEX_POINT('',#1341);
#448=VERTEX_POINT('',#1343);
#449=VERTEX_POINT('',#1345);
#450=VERTEX_POINT('',#1349);
#451=VERTEX_POINT('',#1351);
#452=VERTEX_POINT('',#1355);
#453=VERTEX_POINT('',#1359);
#454=VERTEX_POINT('',#1363);
#455=VERTEX_POINT('',#1367);
#456=VERTEX_POINT('',#1371);
#457=VERTEX_POINT('',#1373);
#458=VERTEX_POINT('',#1375);
#459=VERTEX_POINT('',#1379);
#460=VERTEX_POINT('',#1383);
#461=VERTEX_POINT('',#1387);
#462=EDGE_CURVE('',#388,#388,#366,.T.);
#463=EDGE_CURVE('',#388,#389,#188,.T.);
#464=EDGE_CURVE('',#389,#389,#367,.T.);
#465=EDGE_CURVE('',#390,#390,#368,.T.);
#466=EDGE_CURVE('',#390,#391,#189,.T.);
#467=EDGE_CURVE('',#391,#391,#369,.T.);
#468=EDGE_CURVE('',#392,#392,#370,.T.);
#469=EDGE_CURVE('',#392,#393,#190,.T.);
#470=EDGE_CURVE('',#393,#393,#371,.T.);
#471=EDGE_CURVE('',#394,#394,#372,.T.);
#472=EDGE_CURVE('',#394,#395,#191,.T.);
#473=EDGE_CURVE('',#395,#395,#373,.T.);
#474=EDGE_CURVE('',#396,#397,#192,.T.);
#475=EDGE_CURVE('',#396,#398,#193,.T.);
#476=EDGE_CURVE('',#399,#398,#194,.T.);
#477=EDGE_CURVE('',#397,#399,#195,.T.);
#478=EDGE_CURVE('',#400,#401,#196,.T.);
#479=EDGE_CURVE('',#402,#400,#197,.T.);
#480=EDGE_CURVE('',#403,#402,#198,.T.);
#481=EDGE_CURVE('',#403,#401,#199,.T.);
#482=EDGE_CURVE('',#397,#404,#200,.T.);
#483=EDGE_CURVE('',#405,#399,#201,.T.);
#484=EDGE_CURVE('',#404,#405,#202,.T.);
#485=EDGE_CURVE('',#406,#396,#203,.T.);
#486=EDGE_CURVE('',#406,#407,#204,.T.);
#487=EDGE_CURVE('',#398,#407,#205,.T.);
#488=EDGE_CURVE('',#401,#408,#206,.T.);
#489=EDGE_CURVE('',#409,#403,#207,.T.);
#490=EDGE_CURVE('',#409,#408,#208,.T.);
#491=EDGE_CURVE('',#404,#406,#209,.T.);
#492=EDGE_CURVE('',#407,#405,#210,.T.);
#493=EDGE_CURVE('',#408,#410,#211,.T.);
#494=EDGE_CURVE('',#411,#409,#212,.T.);
#495=EDGE_CURVE('',#411,#410,#213,.T.);
#496=EDGE_CURVE('',#410,#400,#214,.T.);
#497=EDGE_CURVE('',#402,#411,#215,.T.);
#498=EDGE_CURVE('',#412,#413,#216,.T.);
#499=EDGE_CURVE('',#412,#414,#217,.T.);
#500=EDGE_CURVE('',#415,#414,#218,.T.);
#501=EDGE_CURVE('',#413,#415,#219,.T.);
#502=EDGE_CURVE('',#416,#417,#220,.T.);
#503=EDGE_CURVE('',#418,#416,#221,.T.);
#504=EDGE_CURVE('',#419,#418,#222,.T.);
#505=EDGE_CURVE('',#419,#417,#223,.T.);
#506=EDGE_CURVE('',#413,#420,#224,.T.);
#507=EDGE_CURVE('',#421,#415,#225,.T.);
#508=EDGE_CURVE('',#420,#421,#226,.T.);
#509=EDGE_CURVE('',#422,#412,#227,.T.);
#510=EDGE_CURVE('',#422,#423,#228,.T.);
#511=EDGE_CURVE('',#414,#423,#229,.T.);
#512=EDGE_CURVE('',#417,#424,#230,.T.);
#513=EDGE_CURVE('',#425,#419,#231,.T.);
#514=EDGE_CURVE('',#425,#424,#232,.T.);
#515=EDGE_CURVE('',#420,#422,#233,.T.);
#516=EDGE_CURVE('',#423,#421,#234,.T.);
#517=EDGE_CURVE('',#424,#426,#235,.T.);
#518=EDGE_CURVE('',#427,#425,#236,.T.);
#519=EDGE_CURVE('',#427,#426,#237,.T.);
#520=EDGE_CURVE('',#426,#416,#238,.T.);
#521=EDGE_CURVE('',#418,#427,#239,.T.);
#522=EDGE_CURVE('',#428,#428,#374,.T.);
#523=EDGE_CURVE('',#428,#429,#240,.T.);
#524=EDGE_CURVE('',#429,#429,#375,.T.);
#525=EDGE_CURVE('',#430,#430,#376,.T.);
#526=EDGE_CURVE('',#430,#431,#241,.T.);
#527=EDGE_CURVE('',#431,#431,#377,.T.);
#528=EDGE_CURVE('',#432,#432,#378,.T.);
#529=EDGE_CURVE('',#432,#433,#242,.T.);
#530=EDGE_CURVE('',#433,#433,#379,.T.);
#531=EDGE_CURVE('',#434,#434,#380,.T.);
#532=EDGE_CURVE('',#434,#435,#243,.T.);
#533=EDGE_CURVE('',#435,#435,#381,.T.);
#534=EDGE_CURVE('',#436,#436,#382,.T.);
#535=EDGE_CURVE('',#436,#437,#244,.T.);
#536=EDGE_CURVE('',#437,#437,#383,.T.);
#537=EDGE_CURVE('',#438,#438,#384,.T.);
#538=EDGE_CURVE('',#438,#439,#245,.T.);
#539=EDGE_CURVE('',#439,#439,#385,.T.);
#540=EDGE_CURVE('',#440,#440,#386,.T.);
#541=EDGE_CURVE('',#440,#441,#246,.T.);
#542=EDGE_CURVE('',#441,#441,#387,.T.);
#543=EDGE_CURVE('',#442,#443,#247,.T.);
#544=EDGE_CURVE('',#444,#442,#248,.T.);
#545=EDGE_CURVE('',#445,#444,#249,.T.);
#546=EDGE_CURVE('',#446,#445,#250,.T.);
#547=EDGE_CURVE('',#447,#446,#251,.T.);
#548=EDGE_CURVE('',#448,#447,#252,.T.);
#549=EDGE_CURVE('',#449,#448,#253,.T.);
#550=EDGE_CURVE('',#443,#449,#254,.T.);
#551=EDGE_CURVE('',#450,#446,#255,.T.);
#552=EDGE_CURVE('',#451,#450,#256,.T.);
#553=EDGE_CURVE('',#447,#451,#257,.T.);
#554=EDGE_CURVE('',#445,#452,#258,.T.);
#555=EDGE_CURVE('',#450,#452,#259,.T.);
#556=EDGE_CURVE('',#453,#444,#260,.T.);
#557=EDGE_CURVE('',#452,#453,#261,.T.);
#558=EDGE_CURVE('',#442,#454,#262,.T.);
#559=EDGE_CURVE('',#454,#453,#263,.T.);
#560=EDGE_CURVE('',#455,#443,#264,.T.);
#561=EDGE_CURVE('',#454,#455,#265,.T.);
#562=EDGE_CURVE('',#451,#456,#266,.T.);
#563=EDGE_CURVE('',#457,#456,#267,.T.);
#564=EDGE_CURVE('',#458,#457,#268,.T.);
#565=EDGE_CURVE('',#448,#458,#269,.T.);
#566=EDGE_CURVE('',#459,#455,#270,.T.);
#567=EDGE_CURVE('',#456,#459,#271,.T.);
#568=EDGE_CURVE('',#459,#460,#272,.T.);
#569=EDGE_CURVE('',#460,#457,#273,.T.);
#570=EDGE_CURVE('',#458,#461,#274,.T.);
#571=EDGE_CURVE('',#461,#460,#275,.T.);
#572=EDGE_CURVE('',#461,#449,#276,.T.);
#573=ORIENTED_EDGE('',*,*,#462,.F.);
#574=ORIENTED_EDGE('',*,*,#463,.T.);
#575=ORIENTED_EDGE('',*,*,#464,.F.);
#576=ORIENTED_EDGE('',*,*,#463,.F.);
#577=ORIENTED_EDGE('',*,*,#465,.F.);
#578=ORIENTED_EDGE('',*,*,#466,.T.);
#579=ORIENTED_EDGE('',*,*,#467,.F.);
#580=ORIENTED_EDGE('',*,*,#466,.F.);
#581=ORIENTED_EDGE('',*,*,#468,.F.);
#582=ORIENTED_EDGE('',*,*,#469,.T.);
#583=ORIENTED_EDGE('',*,*,#470,.F.);
#584=ORIENTED_EDGE('',*,*,#469,.F.);
#585=ORIENTED_EDGE('',*,*,#471,.F.);
#586=ORIENTED_EDGE('',*,*,#472,.T.);
#587=ORIENTED_EDGE('',*,*,#473,.F.);
#588=ORIENTED_EDGE('',*,*,#472,.F.);
#589=ORIENTED_EDGE('',*,*,#474,.F.);
#590=ORIENTED_EDGE('',*,*,#475,.T.);
#591=ORIENTED_EDGE('',*,*,#476,.F.);
#592=ORIENTED_EDGE('',*,*,#477,.F.);
#593=ORIENTED_EDGE('',*,*,#478,.F.);
#594=ORIENTED_EDGE('',*,*,#479,.F.);
#595=ORIENTED_EDGE('',*,*,#480,.F.);
#596=ORIENTED_EDGE('',*,*,#481,.T.);
#597=ORIENTED_EDGE('',*,*,#482,.F.);
#598=ORIENTED_EDGE('',*,*,#477,.T.);
#599=ORIENTED_EDGE('',*,*,#483,.F.);
#600=ORIENTED_EDGE('',*,*,#484,.F.);
#601=ORIENTED_EDGE('',*,*,#485,.F.);
#602=ORIENTED_EDGE('',*,*,#486,.T.);
#603=ORIENTED_EDGE('',*,*,#487,.F.);
#604=ORIENTED_EDGE('',*,*,#475,.F.);
#605=ORIENTED_EDGE('',*,*,#488,.F.);
#606=ORIENTED_EDGE('',*,*,#481,.F.);
#607=ORIENTED_EDGE('',*,*,#489,.F.);
#608=ORIENTED_EDGE('',*,*,#490,.T.);
#609=ORIENTED_EDGE('',*,*,#491,.F.);
#610=ORIENTED_EDGE('',*,*,#484,.T.);
#611=ORIENTED_EDGE('',*,*,#492,.F.);
#612=ORIENTED_EDGE('',*,*,#486,.F.);
#613=ORIENTED_EDGE('',*,*,#493,.F.);
#614=ORIENTED_EDGE('',*,*,#490,.F.);
#615=ORIENTED_EDGE('',*,*,#494,.F.);
#616=ORIENTED_EDGE('',*,*,#495,.T.);
#617=ORIENTED_EDGE('',*,*,#496,.F.);
#618=ORIENTED_EDGE('',*,*,#495,.F.);
#619=ORIENTED_EDGE('',*,*,#497,.F.);
#620=ORIENTED_EDGE('',*,*,#479,.T.);
#621=ORIENTED_EDGE('',*,*,#498,.F.);
#622=ORIENTED_EDGE('',*,*,#499,.T.);
#623=ORIENTED_EDGE('',*,*,#500,.F.);
#624=ORIENTED_EDGE('',*,*,#501,.F.);
#625=ORIENTED_EDGE('',*,*,#502,.F.);
#626=ORIENTED_EDGE('',*,*,#503,.F.);
#627=ORIENTED_EDGE('',*,*,#504,.F.);
#628=ORIENTED_EDGE('',*,*,#505,.T.);
#629=ORIENTED_EDGE('',*,*,#506,.F.);
#630=ORIENTED_EDGE('',*,*,#501,.T.);
#631=ORIENTED_EDGE('',*,*,#507,.F.);
#632=ORIENTED_EDGE('',*,*,#508,.F.);
#633=ORIENTED_EDGE('',*,*,#509,.F.);
#634=ORIENTED_EDGE('',*,*,#510,.T.);
#635=ORIENTED_EDGE('',*,*,#511,.F.);
#636=ORIENTED_EDGE('',*,*,#499,.F.);
#637=ORIENTED_EDGE('',*,*,#512,.F.);
#638=ORIENTED_EDGE('',*,*,#505,.F.);
#639=ORIENTED_EDGE('',*,*,#513,.F.);
#640=ORIENTED_EDGE('',*,*,#514,.T.);
#641=ORIENTED_EDGE('',*,*,#515,.F.);
#642=ORIENTED_EDGE('',*,*,#508,.T.);
#643=ORIENTED_EDGE('',*,*,#516,.F.);
#644=ORIENTED_EDGE('',*,*,#510,.F.);
#645=ORIENTED_EDGE('',*,*,#517,.F.);
#646=ORIENTED_EDGE('',*,*,#514,.F.);
#647=ORIENTED_EDGE('',*,*,#518,.F.);
#648=ORIENTED_EDGE('',*,*,#519,.T.);
#649=ORIENTED_EDGE('',*,*,#520,.F.);
#650=ORIENTED_EDGE('',*,*,#519,.F.);
#651=ORIENTED_EDGE('',*,*,#521,.F.);
#652=ORIENTED_EDGE('',*,*,#503,.T.);
#653=ORIENTED_EDGE('',*,*,#522,.F.);
#654=ORIENTED_EDGE('',*,*,#523,.T.);
#655=ORIENTED_EDGE('',*,*,#524,.F.);
#656=ORIENTED_EDGE('',*,*,#523,.F.);
#657=ORIENTED_EDGE('',*,*,#522,.T.);
#658=ORIENTED_EDGE('',*,*,#525,.F.);
#659=ORIENTED_EDGE('',*,*,#526,.T.);
#660=ORIENTED_EDGE('',*,*,#527,.F.);
#661=ORIENTED_EDGE('',*,*,#526,.F.);
#662=ORIENTED_EDGE('',*,*,#525,.T.);
#663=ORIENTED_EDGE('',*,*,#528,.F.);
#664=ORIENTED_EDGE('',*,*,#529,.T.);
#665=ORIENTED_EDGE('',*,*,#530,.F.);
#666=ORIENTED_EDGE('',*,*,#529,.F.);
#667=ORIENTED_EDGE('',*,*,#528,.T.);
#668=ORIENTED_EDGE('',*,*,#531,.F.);
#669=ORIENTED_EDGE('',*,*,#532,.T.);
#670=ORIENTED_EDGE('',*,*,#533,.F.);
#671=ORIENTED_EDGE('',*,*,#532,.F.);
#672=ORIENTED_EDGE('',*,*,#531,.T.);
#673=ORIENTED_EDGE('',*,*,#534,.F.);
#674=ORIENTED_EDGE('',*,*,#535,.T.);
#675=ORIENTED_EDGE('',*,*,#536,.F.);
#676=ORIENTED_EDGE('',*,*,#535,.F.);
#677=ORIENTED_EDGE('',*,*,#534,.T.);
#678=ORIENTED_EDGE('',*,*,#537,.F.);
#679=ORIENTED_EDGE('',*,*,#538,.T.);
#680=ORIENTED_EDGE('',*,*,#539,.F.);
#681=ORIENTED_EDGE('',*,*,#538,.F.);
#682=ORIENTED_EDGE('',*,*,#537,.T.);
#683=ORIENTED_EDGE('',*,*,#540,.F.);
#684=ORIENTED_EDGE('',*,*,#541,.T.);
#685=ORIENTED_EDGE('',*,*,#542,.F.);
#686=ORIENTED_EDGE('',*,*,#541,.F.);
#687=ORIENTED_EDGE('',*,*,#540,.T.);
#688=ORIENTED_EDGE('',*,*,#543,.F.);
#689=ORIENTED_EDGE('',*,*,#544,.F.);
#690=ORIENTED_EDGE('',*,*,#545,.F.);
#691=ORIENTED_EDGE('',*,*,#546,.F.);
#692=ORIENTED_EDGE('',*,*,#547,.F.);
#693=ORIENTED_EDGE('',*,*,#548,.F.);
#694=ORIENTED_EDGE('',*,*,#549,.F.);
#695=ORIENTED_EDGE('',*,*,#550,.F.);
#696=ORIENTED_EDGE('',*,*,#524,.T.);
#697=ORIENTED_EDGE('',*,*,#527,.T.);
#698=ORIENTED_EDGE('',*,*,#530,.T.);
#699=ORIENTED_EDGE('',*,*,#533,.T.);
#700=ORIENTED_EDGE('',*,*,#536,.T.);
#701=ORIENTED_EDGE('',*,*,#539,.T.);
#702=ORIENTED_EDGE('',*,*,#542,.T.);
#703=ORIENTED_EDGE('',*,*,#547,.T.);
#704=ORIENTED_EDGE('',*,*,#551,.F.);
#705=ORIENTED_EDGE('',*,*,#552,.F.);
#706=ORIENTED_EDGE('',*,*,#553,.F.);
#707=ORIENTED_EDGE('',*,*,#546,.T.);
#708=ORIENTED_EDGE('',*,*,#554,.T.);
#709=ORIENTED_EDGE('',*,*,#555,.F.);
#710=ORIENTED_EDGE('',*,*,#551,.T.);
#711=ORIENTED_EDGE('',*,*,#467,.T.);
#712=ORIENTED_EDGE('',*,*,#473,.T.);
#713=ORIENTED_EDGE('',*,*,#493,.T.);
#714=ORIENTED_EDGE('',*,*,#496,.T.);
#715=ORIENTED_EDGE('',*,*,#478,.T.);
#716=ORIENTED_EDGE('',*,*,#488,.T.);
#717=ORIENTED_EDGE('',*,*,#517,.T.);
#718=ORIENTED_EDGE('',*,*,#520,.T.);
#719=ORIENTED_EDGE('',*,*,#502,.T.);
#720=ORIENTED_EDGE('',*,*,#512,.T.);
#721=ORIENTED_EDGE('',*,*,#545,.T.);
#722=ORIENTED_EDGE('',*,*,#556,.F.);
#723=ORIENTED_EDGE('',*,*,#557,.F.);
#724=ORIENTED_EDGE('',*,*,#554,.F.);
#725=ORIENTED_EDGE('',*,*,#544,.T.);
#726=ORIENTED_EDGE('',*,*,#558,.T.);
#727=ORIENTED_EDGE('',*,*,#559,.T.);
#728=ORIENTED_EDGE('',*,*,#556,.T.);
#729=ORIENTED_EDGE('',*,*,#462,.T.);
#730=ORIENTED_EDGE('',*,*,#468,.T.);
#731=ORIENTED_EDGE('',*,*,#491,.T.);
#732=ORIENTED_EDGE('',*,*,#485,.T.);
#733=ORIENTED_EDGE('',*,*,#474,.T.);
#734=ORIENTED_EDGE('',*,*,#482,.T.);
#735=ORIENTED_EDGE('',*,*,#515,.T.);
#736=ORIENTED_EDGE('',*,*,#509,.T.);
#737=ORIENTED_EDGE('',*,*,#498,.T.);
#738=ORIENTED_EDGE('',*,*,#506,.T.);
#739=ORIENTED_EDGE('',*,*,#543,.T.);
#740=ORIENTED_EDGE('',*,*,#560,.F.);
#741=ORIENTED_EDGE('',*,*,#561,.F.);
#742=ORIENTED_EDGE('',*,*,#558,.F.);
#743=ORIENTED_EDGE('',*,*,#548,.T.);
#744=ORIENTED_EDGE('',*,*,#553,.T.);
#745=ORIENTED_EDGE('',*,*,#562,.T.);
#746=ORIENTED_EDGE('',*,*,#563,.F.);
#747=ORIENTED_EDGE('',*,*,#564,.F.);
#748=ORIENTED_EDGE('',*,*,#565,.F.);
#749=ORIENTED_EDGE('',*,*,#465,.T.);
#750=ORIENTED_EDGE('',*,*,#471,.T.);
#751=ORIENTED_EDGE('',*,*,#494,.T.);
#752=ORIENTED_EDGE('',*,*,#489,.T.);
#753=ORIENTED_EDGE('',*,*,#480,.T.);
#754=ORIENTED_EDGE('',*,*,#497,.T.);
#755=ORIENTED_EDGE('',*,*,#518,.T.);
#756=ORIENTED_EDGE('',*,*,#513,.T.);
#757=ORIENTED_EDGE('',*,*,#504,.T.);
#758=ORIENTED_EDGE('',*,*,#521,.T.);
#759=ORIENTED_EDGE('',*,*,#566,.F.);
#760=ORIENTED_EDGE('',*,*,#567,.F.);
#761=ORIENTED_EDGE('',*,*,#562,.F.);
#762=ORIENTED_EDGE('',*,*,#552,.T.);
#763=ORIENTED_EDGE('',*,*,#555,.T.);
#764=ORIENTED_EDGE('',*,*,#557,.T.);
#765=ORIENTED_EDGE('',*,*,#559,.F.);
#766=ORIENTED_EDGE('',*,*,#561,.T.);
#767=ORIENTED_EDGE('',*,*,#563,.T.);
#768=ORIENTED_EDGE('',*,*,#567,.T.);
#769=ORIENTED_EDGE('',*,*,#568,.T.);
#770=ORIENTED_EDGE('',*,*,#569,.T.);
#771=ORIENTED_EDGE('',*,*,#570,.F.);
#772=ORIENTED_EDGE('',*,*,#564,.T.);
#773=ORIENTED_EDGE('',*,*,#569,.F.);
#774=ORIENTED_EDGE('',*,*,#571,.F.);
#775=ORIENTED_EDGE('',*,*,#550,.T.);
#776=ORIENTED_EDGE('',*,*,#572,.F.);
#777=ORIENTED_EDGE('',*,*,#571,.T.);
#778=ORIENTED_EDGE('',*,*,#568,.F.);
#779=ORIENTED_EDGE('',*,*,#566,.T.);
#780=ORIENTED_EDGE('',*,*,#560,.T.);
#781=ORIENTED_EDGE('',*,*,#464,.T.);
#782=ORIENTED_EDGE('',*,*,#470,.T.);
#783=ORIENTED_EDGE('',*,*,#492,.T.);
#784=ORIENTED_EDGE('',*,*,#483,.T.);
#785=ORIENTED_EDGE('',*,*,#476,.T.);
#786=ORIENTED_EDGE('',*,*,#487,.T.);
#787=ORIENTED_EDGE('',*,*,#516,.T.);
#788=ORIENTED_EDGE('',*,*,#507,.T.);
#789=ORIENTED_EDGE('',*,*,#500,.T.);
#790=ORIENTED_EDGE('',*,*,#511,.T.);
#791=ORIENTED_EDGE('',*,*,#549,.T.);
#792=ORIENTED_EDGE('',*,*,#565,.T.);
#793=ORIENTED_EDGE('',*,*,#570,.T.);
#794=ORIENTED_EDGE('',*,*,#572,.T.);
#795=CYLINDRICAL_SURFACE('',#866,1.29999999999999);
#796=CYLINDRICAL_SURFACE('',#869,1.29999999999999);
#797=CYLINDRICAL_SURFACE('',#872,1.29999999999999);
#798=CYLINDRICAL_SURFACE('',#875,1.29999999999999);
#799=CYLINDRICAL_SURFACE('',#894,1.25);
#800=CYLINDRICAL_SURFACE('',#898,1.25);
#801=CYLINDRICAL_SURFACE('',#902,1.25);
#802=CYLINDRICAL_SURFACE('',#906,1.25);
#803=CYLINDRICAL_SURFACE('',#910,1.25);
#804=CYLINDRICAL_SURFACE('',#914,1.25);
#805=CYLINDRICAL_SURFACE('',#918,1.25);
#806=ADVANCED_FACE('',(#73),#795,.F.);
#807=ADVANCED_FACE('',(#74),#796,.F.);
#808=ADVANCED_FACE('',(#75),#797,.F.);
#809=ADVANCED_FACE('',(#76),#798,.F.);
#810=ADVANCED_FACE('',(#77),#38,.F.);
#811=ADVANCED_FACE('',(#78),#39,.F.);
#812=ADVANCED_FACE('',(#79),#40,.F.);
#813=ADVANCED_FACE('',(#80),#41,.F.);
#814=ADVANCED_FACE('',(#81),#42,.F.);
#815=ADVANCED_FACE('',(#82),#43,.F.);
#816=ADVANCED_FACE('',(#83),#44,.F.);
#817=ADVANCED_FACE('',(#84),#45,.F.);
#818=ADVANCED_FACE('',(#85),#46,.F.);
#819=ADVANCED_FACE('',(#86),#47,.F.);
#820=ADVANCED_FACE('',(#87),#48,.F.);
#821=ADVANCED_FACE('',(#88),#49,.F.);
#822=ADVANCED_FACE('',(#89),#50,.F.);
#823=ADVANCED_FACE('',(#90),#51,.F.);
#824=ADVANCED_FACE('',(#91),#52,.F.);
#825=ADVANCED_FACE('',(#92),#53,.F.);
#826=ADVANCED_FACE('',(#93),#799,.T.);
#827=ADVANCED_FACE('',(#94),#54,.T.);
#828=ADVANCED_FACE('',(#95),#800,.T.);
#829=ADVANCED_FACE('',(#96),#55,.T.);
#830=ADVANCED_FACE('',(#97),#801,.T.);
#831=ADVANCED_FACE('',(#98),#56,.T.);
#832=ADVANCED_FACE('',(#99),#802,.T.);
#833=ADVANCED_FACE('',(#100),#57,.T.);
#834=ADVANCED_FACE('',(#101),#803,.T.);
#835=ADVANCED_FACE('',(#102),#58,.T.);
#836=ADVANCED_FACE('',(#103),#804,.T.);
#837=ADVANCED_FACE('',(#104),#59,.T.);
#838=ADVANCED_FACE('',(#105),#805,.T.);
#839=ADVANCED_FACE('',(#106),#60,.T.);
#840=ADVANCED_FACE('',(#107,#15,#16,#17,#18,#19,#20,#21),#61,.F.);
#841=ADVANCED_FACE('',(#108),#62,.F.);
#842=ADVANCED_FACE('',(#109,#22,#23,#24,#25),#63,.F.);
#843=ADVANCED_FACE('',(#110),#64,.F.);
#844=ADVANCED_FACE('',(#111,#26,#27,#28,#29),#65,.F.);
#845=ADVANCED_FACE('',(#112),#66,.F.);
#846=ADVANCED_FACE('',(#113,#30,#31,#32,#33),#67,.T.);
#847=ADVANCED_FACE('',(#114),#68,.T.);
#848=ADVANCED_FACE('',(#115),#69,.T.);
#849=ADVANCED_FACE('',(#116),#70,.T.);
#850=ADVANCED_FACE('',(#117,#34,#35,#36,#37),#71,.T.);
#851=ADVANCED_FACE('',(#118),#72,.F.);
#852=CLOSED_SHELL('',(#806,#807,#808,#809,#810,#811,#812,#813,#814,#815,
#816,#817,#818,#819,#820,#821,#822,#823,#824,#825,#826,#827,#828,#829,#830,
#831,#832,#833,#834,#835,#836,#837,#838,#839,#840,#841,#842,#843,#844,#845,
#846,#847,#848,#849,#850,#851));
#853=DERIVED_UNIT_ELEMENT(#855,1.);
#854=DERIVED_UNIT_ELEMENT(#1398,-3.);
#855=(
MASS_UNIT()
NAMED_UNIT(*)
SI_UNIT(.KILO.,.GRAM.)
);
#856=DERIVED_UNIT((#853,#854));
#857=MEASURE_REPRESENTATION_ITEM('density measure',
POSITIVE_RATIO_MEASURE(7850.),#856);
#858=PROPERTY_DEFINITION_REPRESENTATION(#863,#860);
#859=PROPERTY_DEFINITION_REPRESENTATION(#864,#861);
#860=REPRESENTATION('material name',(#862),#1395);
#861=REPRESENTATION('density',(#857),#1395);
#862=DESCRIPTIVE_REPRESENTATION_ITEM('\X2\92FC\X0\','\X2\92FC\X0\');
#863=PROPERTY_DEFINITION('material property','material name',#1405);
#864=PROPERTY_DEFINITION('material property','density of part',#1405);
#865=AXIS2_PLACEMENT_3D('',#1161,#934,#935);
#866=AXIS2_PLACEMENT_3D('',#1162,#936,#937);
#867=AXIS2_PLACEMENT_3D('',#1164,#938,#939);
#868=AXIS2_PLACEMENT_3D('',#1167,#941,#942);
#869=AXIS2_PLACEMENT_3D('',#1168,#943,#944);
#870=AXIS2_PLACEMENT_3D('',#1170,#945,#946);
#871=AXIS2_PLACEMENT_3D('',#1173,#948,#949);
#872=AXIS2_PLACEMENT_3D('',#1174,#950,#951);
#873=AXIS2_PLACEMENT_3D('',#1176,#952,#953);
#874=AXIS2_PLACEMENT_3D('',#1179,#955,#956);
#875=AXIS2_PLACEMENT_3D('',#1180,#957,#958);
#876=AXIS2_PLACEMENT_3D('',#1182,#959,#960);
#877=AXIS2_PLACEMENT_3D('',#1185,#962,#963);
#878=AXIS2_PLACEMENT_3D('',#1186,#964,#965);
#879=AXIS2_PLACEMENT_3D('',#1195,#970,#971);
#880=AXIS2_PLACEMENT_3D('',#1204,#976,#977);
#881=AXIS2_PLACEMENT_3D('',#1210,#981,#982);
#882=AXIS2_PLACEMENT_3D('',#1216,#986,#987);
#883=AXIS2_PLACEMENT_3D('',#1222,#991,#992);
#884=AXIS2_PLACEMENT_3D('',#1225,#995,#996);
#885=AXIS2_PLACEMENT_3D('',#1231,#1000,#1001);
#886=AXIS2_PLACEMENT_3D('',#1234,#1004,#1005);
#887=AXIS2_PLACEMENT_3D('',#1243,#1010,#1011);
#888=AXIS2_PLACEMENT_3D('',#1252,#1016,#1017);
#889=AXIS2_PLACEMENT_3D('',#1258,#1021,#1022);
#890=AXIS2_PLACEMENT_3D('',#1264,#1026,#1027);
#891=AXIS2_PLACEMENT_3D('',#1270,#1031,#1032);
#892=AXIS2_PLACEMENT_3D('',#1273,#1035,#1036);
#893=AXIS2_PLACEMENT_3D('',#1279,#1040,#1041);
#894=AXIS2_PLACEMENT_3D('',#1282,#1044,#1045);
#895=AXIS2_PLACEMENT_3D('',#1284,#1046,#1047);
#896=AXIS2_PLACEMENT_3D('',#1287,#1049,#1050);
#897=AXIS2_PLACEMENT_3D('',#1288,#1051,#1052);
#898=AXIS2_PLACEMENT_3D('',#1289,#1053,#1054);
#899=AXIS2_PLACEMENT_3D('',#1291,#1055,#1056);
#900=AXIS2_PLACEMENT_3D('',#1294,#1058,#1059);
#901=AXIS2_PLACEMENT_3D('',#1295,#1060,#1061);
#902=AXIS2_PLACEMENT_3D('',#1296,#1062,#1063);
#903=AXIS2_PLACEMENT_3D('',#1298,#1064,#1065);
#904=AXIS2_PLACEMENT_3D('',#1301,#1067,#1068);
#905=AXIS2_PLACEMENT_3D('',#1302,#1069,#1070);
#906=AXIS2_PLACEMENT_3D('',#1303,#1071,#1072);
#907=AXIS2_PLACEMENT_3D('',#1305,#1073,#1074);
#908=AXIS2_PLACEMENT_3D('',#1308,#1076,#1077);
#909=AXIS2_PLACEMENT_3D('',#1309,#1078,#1079);
#910=AXIS2_PLACEMENT_3D('',#1310,#1080,#1081);
#911=AXIS2_PLACEMENT_3D('',#1312,#1082,#1083);
#912=AXIS2_PLACEMENT_3D('',#1315,#1085,#1086);
#913=AXIS2_PLACEMENT_3D('',#1316,#1087,#1088);
#914=AXIS2_PLACEMENT_3D('',#1317,#1089,#1090);
#915=AXIS2_PLACEMENT_3D('',#1319,#1091,#1092);
#916=AXIS2_PLACEMENT_3D('',#1322,#1094,#1095);
#917=AXIS2_PLACEMENT_3D('',#1323,#1096,#1097);
#918=AXIS2_PLACEMENT_3D('',#1324,#1098,#1099);
#919=AXIS2_PLACEMENT_3D('',#1326,#1100,#1101);
#920=AXIS2_PLACEMENT_3D('',#1329,#1103,#1104);
#921=AXIS2_PLACEMENT_3D('',#1330,#1105,#1106);
#922=AXIS2_PLACEMENT_3D('',#1331,#1107,#1108);
#923=AXIS2_PLACEMENT_3D('',#1348,#1117,#1118);
#924=AXIS2_PLACEMENT_3D('',#1354,#1122,#1123);
#925=AXIS2_PLACEMENT_3D('',#1358,#1126,#1127);
#926=AXIS2_PLACEMENT_3D('',#1362,#1130,#1131);
#927=AXIS2_PLACEMENT_3D('',#1366,#1134,#1135);
#928=AXIS2_PLACEMENT_3D('',#1370,#1138,#1139);
#929=AXIS2_PLACEMENT_3D('',#1378,#1144,#1145);
#930=AXIS2_PLACEMENT_3D('',#1382,#1148,#1149);
#931=AXIS2_PLACEMENT_3D('',#1386,#1152,#1153);
#932=AXIS2_PLACEMENT_3D('',#1390,#1156,#1157);
#933=AXIS2_PLACEMENT_3D('',#1392,#1159,#1160);
#934=DIRECTION('axis',(0.,0.,1.));
#935=DIRECTION('refdir',(1.,0.,0.));
#936=DIRECTION('center_axis',(0.,-1.,0.));
#937=DIRECTION('ref_axis',(-1.,0.,0.));
#938=DIRECTION('center_axis',(0.,-1.,0.));
#939=DIRECTION('ref_axis',(-1.,0.,0.));
#940=DIRECTION('',(0.,-1.,0.));
#941=DIRECTION('center_axis',(0.,1.,0.));
#942=DIRECTION('ref_axis',(-1.,0.,0.));
#943=DIRECTION('center_axis',(0.,-1.,0.));
#944=DIRECTION('ref_axis',(-1.,0.,0.));
#945=DIRECTION('center_axis',(0.,-1.,0.));
#946=DIRECTION('ref_axis',(-1.,0.,0.));
#947=DIRECTION('',(0.,-1.,0.));
#948=DIRECTION('center_axis',(3.81374321436122E-17,1.,0.));
#949=DIRECTION('ref_axis',(-1.,0.,0.));
#950=DIRECTION('center_axis',(0.,-1.,0.));
#951=DIRECTION('ref_axis',(-1.,0.,0.));
#952=DIRECTION('center_axis',(0.,-1.,0.));
#953=DIRECTION('ref_axis',(-1.,0.,0.));
#954=DIRECTION('',(0.,-1.,0.));
#955=DIRECTION('center_axis',(0.,1.,0.));
#956=DIRECTION('ref_axis',(-1.,0.,0.));
#957=DIRECTION('center_axis',(0.,-1.,0.));
#958=DIRECTION('ref_axis',(-1.,0.,0.));
#959=DIRECTION('center_axis',(0.,-1.,0.));
#960=DIRECTION('ref_axis',(-1.,0.,0.));
#961=DIRECTION('',(0.,-1.,0.));
#962=DIRECTION('center_axis',(3.81374321436122E-17,1.,0.));
#963=DIRECTION('ref_axis',(-1.,0.,0.));
#964=DIRECTION('center_axis',(0.,0.,1.));
#965=DIRECTION('ref_axis',(-1.,0.,0.));
#966=DIRECTION('',(-1.,0.,0.));
#967=DIRECTION('',(0.,-1.,0.));
#968=DIRECTION('',(1.,0.,0.));
#969=DIRECTION('',(0.,-1.,0.));
#970=DIRECTION('center_axis',(0.,0.,1.));
#971=DIRECTION('ref_axis',(-1.,0.,0.));
#972=DIRECTION('',(1.,-3.81374321436122E-17,0.));
#973=DIRECTION('',(0.,-1.,0.));
#974=DIRECTION('',(-1.,0.,0.));
#975=DIRECTION('',(0.,-1.,0.));
#976=DIRECTION('center_axis',(-1.,0.,0.));
#977=DIRECTION('ref_axis',(0.,0.,-1.));
#978=DIRECTION('',(0.,0.,-1.));
#979=DIRECTION('',(0.,0.,1.));
#980=DIRECTION('',(0.,-1.,0.));
#981=DIRECTION('center_axis',(1.,0.,0.));
#982=DIRECTION('ref_axis',(0.,0.,1.));
#983=DIRECTION('',(0.,0.,1.));
#984=DIRECTION('',(0.,-1.,0.));
#985=DIRECTION('',(0.,0.,-1.));
#986=DIRECTION('center_axis',(1.,0.,0.));
#987=DIRECTION('ref_axis',(0.,0.,1.));
#988=DIRECTION('',(0.,0.,-1.));
#989=DIRECTION('',(0.,0.,1.));
#990=DIRECTION('',(0.,-1.,0.));
#991=DIRECTION('center_axis',(0.,0.,-1.));
#992=DIRECTION('ref_axis',(1.,0.,0.));
#993=DIRECTION('',(1.,0.,0.));
#994=DIRECTION('',(-1.,0.,0.));
#995=DIRECTION('center_axis',(0.,0.,-1.));
#996=DIRECTION('ref_axis',(1.,0.,0.));
#997=DIRECTION('',(-1.,3.81374321436122E-17,0.));
#998=DIRECTION('',(1.,0.,0.));
#999=DIRECTION('',(0.,-1.,0.));
#1000=DIRECTION('center_axis',(-1.,0.,0.));
#1001=DIRECTION('ref_axis',(0.,0.,-1.));
#1002=DIRECTION('',(0.,0.,1.));
#1003=DIRECTION('',(0.,0.,-1.));
#1004=DIRECTION('center_axis',(1.,0.,0.));
#1005=DIRECTION('ref_axis',(0.,0.,1.));
#1006=DIRECTION('',(0.,0.,1.));
#1007=DIRECTION('',(0.,-1.,0.));
#1008=DIRECTION('',(0.,0.,-1.));
#1009=DIRECTION('',(0.,-1.,0.));
#1010=DIRECTION('center_axis',(1.,0.,0.));
#1011=DIRECTION('ref_axis',(0.,0.,1.));
#1012=DIRECTION('',(0.,0.,-1.));
#1013=DIRECTION('',(0.,-1.,0.));
#1014=DIRECTION('',(0.,0.,1.));
#1015=DIRECTION('',(0.,-1.,0.));
#1016=DIRECTION('center_axis',(0.,0.,1.));
#1017=DIRECTION('ref_axis',(-1.,0.,0.));
#1018=DIRECTION('',(-1.,0.,0.));
#1019=DIRECTION('',(1.,0.,0.));
#1020=DIRECTION('',(0.,-1.,0.));
#1021=DIRECTION('center_axis',(0.,0.,-1.));
#1022=DIRECTION('ref_axis',(1.,0.,0.));
#1023=DIRECTION('',(1.,0.,0.));
#1024=DIRECTION('',(0.,-1.,0.));
#1025=DIRECTION('',(-1.,0.,0.));
#1026=DIRECTION('center_axis',(0.,0.,-1.));
#1027=DIRECTION('ref_axis',(1.,0.,0.));
#1028=DIRECTION('',(-1.,3.81374321436122E-17,0.));
#1029=DIRECTION('',(1.,0.,0.));
#1030=DIRECTION('',(0.,-1.,0.));
#1031=DIRECTION('center_axis',(-1.,0.,0.));
#1032=DIRECTION('ref_axis',(0.,0.,-1.));
#1033=DIRECTION('',(0.,0.,-1.));
#1034=DIRECTION('',(0.,0.,1.));
#1035=DIRECTION('center_axis',(-1.,0.,0.));
#1036=DIRECTION('ref_axis',(0.,0.,-1.));
#1037=DIRECTION('',(0.,0.,1.));
#1038=DIRECTION('',(0.,0.,-1.));
#1039=DIRECTION('',(0.,-1.,0.));
#1040=DIRECTION('center_axis',(0.,0.,1.));
#1041=DIRECTION('ref_axis',(-1.,0.,0.));
#1042=DIRECTION('',(1.,-3.81374321436122E-17,0.));
#1043=DIRECTION('',(-1.,0.,0.));
#1044=DIRECTION('center_axis',(-1.,0.,0.));
#1045=DIRECTION('ref_axis',(0.,-1.,0.));
#1046=DIRECTION('center_axis',(-1.,0.,0.));
#1047=DIRECTION('ref_axis',(0.,-1.,0.));
#1048=DIRECTION('',(1.,0.,0.));
#1049=DIRECTION('center_axis',(1.,0.,0.));
#1050=DIRECTION('ref_axis',(0.,-1.,0.));
#1051=DIRECTION('center_axis',(-1.,0.,0.));
#1052=DIRECTION('ref_axis',(0.,-1.,0.));
#1053=DIRECTION('center_axis',(-1.,0.,0.));
#1054=DIRECTION('ref_axis',(0.,-1.,0.));
#1055=DIRECTION('center_axis',(-1.,0.,0.));
#1056=DIRECTION('ref_axis',(0.,-1.,0.));
#1057=DIRECTION('',(1.,0.,0.));
#1058=DIRECTION('center_axis',(1.,0.,0.));
#1059=DIRECTION('ref_axis',(0.,-1.,0.));
#1060=DIRECTION('center_axis',(-1.,0.,0.));
#1061=DIRECTION('ref_axis',(0.,-1.,0.));
#1062=DIRECTION('center_axis',(-1.,0.,0.));
#1063=DIRECTION('ref_axis',(0.,-1.,0.));
#1064=DIRECTION('center_axis',(-1.,0.,0.));
#1065=DIRECTION('ref_axis',(0.,-1.,0.));
#1066=DIRECTION('',(1.,0.,0.));
#1067=DIRECTION('center_axis',(1.,0.,0.));
#1068=DIRECTION('ref_axis',(0.,-1.,0.));
#1069=DIRECTION('center_axis',(-1.,0.,0.));
#1070=DIRECTION('ref_axis',(0.,-1.,0.));
#1071=DIRECTION('center_axis',(-1.,0.,0.));
#1072=DIRECTION('ref_axis',(0.,-1.,0.));
#1073=DIRECTION('center_axis',(-1.,0.,0.));
#1074=DIRECTION('ref_axis',(0.,-1.,0.));
#1075=DIRECTION('',(1.,0.,0.));
#1076=DIRECTION('center_axis',(1.,0.,0.));
#1077=DIRECTION('ref_axis',(0.,-1.,0.));
#1078=DIRECTION('center_axis',(-1.,0.,0.));
#1079=DIRECTION('ref_axis',(0.,-1.,0.));
#1080=DIRECTION('center_axis',(-1.,0.,0.));
#1081=DIRECTION('ref_axis',(0.,-1.,0.));
#1082=DIRECTION('center_axis',(-1.,0.,0.));
#1083=DIRECTION('ref_axis',(0.,-1.,0.));
#1084=DIRECTION('',(1.,0.,0.));
#1085=DIRECTION('center_axis',(1.,0.,0.));
#1086=DIRECTION('ref_axis',(0.,-1.,0.));
#1087=DIRECTION('center_axis',(-1.,0.,0.));
#1088=DIRECTION('ref_axis',(0.,-1.,0.));
#1089=DIRECTION('center_axis',(-1.,0.,0.));
#1090=DIRECTION('ref_axis',(0.,-1.,0.));
#1091=DIRECTION('center_axis',(-1.,0.,0.));
#1092=DIRECTION('ref_axis',(0.,-1.,0.));
#1093=DIRECTION('',(1.,0.,0.));
#1094=DIRECTION('center_axis',(1.,0.,0.));
#1095=DIRECTION('ref_axis',(0.,-1.,0.));
#1096=DIRECTION('center_axis',(-1.,0.,0.));
#1097=DIRECTION('ref_axis',(0.,-1.,0.));
#1098=DIRECTION('center_axis',(-1.,0.,0.));
#1099=DIRECTION('ref_axis',(0.,-1.,0.));
#1100=DIRECTION('center_axis',(-1.,0.,0.));
#1101=DIRECTION('ref_axis',(0.,-1.,0.));
#1102=DIRECTION('',(1.,0.,0.));
#1103=DIRECTION('center_axis',(1.,0.,0.));
#1104=DIRECTION('ref_axis',(0.,-1.,0.));
#1105=DIRECTION('center_axis',(-1.,0.,0.));
#1106=DIRECTION('ref_axis',(0.,-1.,0.));
#1107=DIRECTION('center_axis',(1.,0.,0.));
#1108=DIRECTION('ref_axis',(0.,0.,-1.));
#1109=DIRECTION('',(0.,-1.,0.));
#1110=DIRECTION('',(0.,0.,1.));
#1111=DIRECTION('',(0.,-1.,0.));
#1112=DIRECTION('',(0.,0.,-1.));
#1113=DIRECTION('',(0.,-1.,0.));
#1114=DIRECTION('',(0.,0.,1.));
#1115=DIRECTION('',(0.,1.,0.));
#1116=DIRECTION('',(0.,0.,-1.));
#1117=DIRECTION('center_axis',(0.,0.,-1.));
#1118=DIRECTION('ref_axis',(-1.,0.,0.));
#1119=DIRECTION('',(-1.,3.81374321436122E-17,0.));
#1120=DIRECTION('',(0.,-1.,0.));
#1121=DIRECTION('',(1.,0.,0.));
#1122=DIRECTION('center_axis',(3.81374321436122E-17,1.,0.));
#1123=DIRECTION('ref_axis',(1.,-3.81374321436122E-17,0.));
#1124=DIRECTION('',(1.,-3.81374321436122E-17,0.));
#1125=DIRECTION('',(0.,0.,-1.));
#1126=DIRECTION('center_axis',(0.,0.,-1.));
#1127=DIRECTION('ref_axis',(-1.,0.,0.));
#1128=DIRECTION('',(-1.,0.,0.));
#1129=DIRECTION('',(0.,-1.,0.));
#1130=DIRECTION('center_axis',(0.,-1.,0.));
#1131=DIRECTION('ref_axis',(-1.,0.,0.));
#1132=DIRECTION('',(1.,0.,0.));
#1133=DIRECTION('',(0.,0.,-1.));
#1134=DIRECTION('center_axis',(0.,0.,-1.));
#1135=DIRECTION('ref_axis',(-1.,0.,0.));
#1136=DIRECTION('',(-1.,0.,0.));
#1137=DIRECTION('',(0.,-1.,0.));
#1138=DIRECTION('center_axis',(0.,1.,0.));
#1139=DIRECTION('ref_axis',(-1.,0.,0.));
#1140=DIRECTION('',(0.,0.,1.));
#1141=DIRECTION('',(-1.,0.,0.));
#1142=DIRECTION('',(0.,0.,1.));
#1143=DIRECTION('',(1.,0.,0.));
#1144=DIRECTION('center_axis',(-1.,0.,0.));
#1145=DIRECTION('ref_axis',(0.,-1.,0.));
#1146=DIRECTION('',(0.,0.,-1.));
#1147=DIRECTION('',(0.,-1.,0.));
#1148=DIRECTION('center_axis',(0.,0.,1.));
#1149=DIRECTION('ref_axis',(1.,0.,0.));
#1150=DIRECTION('',(1.,0.,0.));
#1151=DIRECTION('',(0.,1.,0.));
#1152=DIRECTION('center_axis',(1.,0.,0.));
#1153=DIRECTION('ref_axis',(0.,1.,0.));
#1154=DIRECTION('',(0.,-1.,0.));
#1155=DIRECTION('',(0.,0.,1.));
#1156=DIRECTION('center_axis',(0.,-1.,0.));
#1157=DIRECTION('ref_axis',(1.,0.,0.));
#1158=DIRECTION('',(-1.,0.,0.));
#1159=DIRECTION('center_axis',(0.,0.,1.));
#1160=DIRECTION('ref_axis',(1.,0.,0.));
#1161=CARTESIAN_POINT('',(0.,0.,0.));
#1162=CARTESIAN_POINT('Origin',(293.5,0.,23.));
#1163=CARTESIAN_POINT('',(294.8,-97.5,23.));
#1164=CARTESIAN_POINT('Origin',(293.5,-97.5,23.));
#1165=CARTESIAN_POINT('',(294.8,-102.5,23.));
#1166=CARTESIAN_POINT('',(294.8,0.,23.));
#1167=CARTESIAN_POINT('Origin',(293.5,-102.5,23.));
#1168=CARTESIAN_POINT('Origin',(293.5,0.,23.));
#1169=CARTESIAN_POINT('',(294.8,0.,23.));
#1170=CARTESIAN_POINT('Origin',(293.5,0.,23.));
#1171=CARTESIAN_POINT('',(294.8,-5.,23.));
#1172=CARTESIAN_POINT('',(294.8,0.,23.));
#1173=CARTESIAN_POINT('Origin',(293.5,-5.,23.));
#1174=CARTESIAN_POINT('Origin',(283.5,0.,23.));
#1175=CARTESIAN_POINT('',(284.8,-97.5,23.));
#1176=CARTESIAN_POINT('Origin',(283.5,-97.5,23.));
#1177=CARTESIAN_POINT('',(284.8,-102.5,23.));
#1178=CARTESIAN_POINT('',(284.8,0.,23.));
#1179=CARTESIAN_POINT('Origin',(283.5,-102.5,23.));
#1180=CARTESIAN_POINT('Origin',(283.5,0.,23.));
#1181=CARTESIAN_POINT('',(284.8,0.,23.));
#1182=CARTESIAN_POINT('Origin',(283.5,0.,23.));
#1183=CARTESIAN_POINT('',(284.8,-5.,23.));
#1184=CARTESIAN_POINT('',(284.8,0.,23.));
#1185=CARTESIAN_POINT('Origin',(283.5,-5.,23.));
#1186=CARTESIAN_POINT('Origin',(302.,0.,19.));
#1187=CARTESIAN_POINT('',(302.,-97.5,19.));
#1188=CARTESIAN_POINT('',(294.,-97.5,19.));
#1189=CARTESIAN_POINT('',(307.,-97.5,19.));
#1190=CARTESIAN_POINT('',(302.,-102.5,19.));
#1191=CARTESIAN_POINT('',(302.,0.,19.));
#1192=CARTESIAN_POINT('',(294.,-102.5,19.));
#1193=CARTESIAN_POINT('',(166.,-102.5,19.));
#1194=CARTESIAN_POINT('',(294.,0.,19.));
#1195=CARTESIAN_POINT('Origin',(302.,0.,19.));
#1196=CARTESIAN_POINT('',(294.,-5.,19.));
#1197=CARTESIAN_POINT('',(302.,-5.00000000000001,19.));
#1198=CARTESIAN_POINT('',(176.,-5.,19.));
#1199=CARTESIAN_POINT('',(294.,0.,19.));
#1200=CARTESIAN_POINT('',(294.,0.,19.));
#1201=CARTESIAN_POINT('',(302.,0.,19.));
#1202=CARTESIAN_POINT('',(317.,0.,19.));
#1203=CARTESIAN_POINT('',(302.,0.,19.));
#1204=CARTESIAN_POINT('Origin',(294.,0.,19.));
#1205=CARTESIAN_POINT('',(294.,-97.5,11.));
#1206=CARTESIAN_POINT('',(294.,-97.5,44.5));
#1207=CARTESIAN_POINT('',(294.,-102.5,11.));
#1208=CARTESIAN_POINT('',(294.,-102.5,9.5));
#1209=CARTESIAN_POINT('',(294.,0.,11.));
#1210=CARTESIAN_POINT('Origin',(302.,0.,11.));
#1211=CARTESIAN_POINT('',(302.,-97.5,11.));
#1212=CARTESIAN_POINT('',(302.,-97.5,40.5));
#1213=CARTESIAN_POINT('',(302.,-102.5,11.));
#1214=CARTESIAN_POINT('',(302.,0.,11.));
#1215=CARTESIAN_POINT('',(302.,-102.5,5.5));
#1216=CARTESIAN_POINT('Origin',(302.,0.,11.));
#1217=CARTESIAN_POINT('',(302.,-5.00000000000001,11.));
#1218=CARTESIAN_POINT('',(302.,-5.,40.5));
#1219=CARTESIAN_POINT('',(302.,0.,11.));
#1220=CARTESIAN_POINT('',(302.,0.,5.5));
#1221=CARTESIAN_POINT('',(302.,0.,11.));
#1222=CARTESIAN_POINT('Origin',(294.,0.,11.));
#1223=CARTESIAN_POINT('',(303.,-97.5,11.));
#1224=CARTESIAN_POINT('',(162.,-102.5,11.));
#1225=CARTESIAN_POINT('Origin',(294.,0.,11.));
#1226=CARTESIAN_POINT('',(294.,-5.,11.));
#1227=CARTESIAN_POINT('',(172.,-5.,11.));
#1228=CARTESIAN_POINT('',(294.,0.,11.));
#1229=CARTESIAN_POINT('',(313.,0.,11.));
#1230=CARTESIAN_POINT('',(294.,0.,11.));
#1231=CARTESIAN_POINT('Origin',(294.,0.,19.));
#1232=CARTESIAN_POINT('',(294.,-5.,44.5));
#1233=CARTESIAN_POINT('',(294.,0.,9.5));
#1234=CARTESIAN_POINT('Origin',(283.5,0.,11.));
#1235=CARTESIAN_POINT('',(283.5,-97.5,11.));
#1236=CARTESIAN_POINT('',(283.5,-97.5,19.));
#1237=CARTESIAN_POINT('',(283.5,-97.5,40.5));
#1238=CARTESIAN_POINT('',(283.5,-102.5,11.));
#1239=CARTESIAN_POINT('',(283.5,0.,11.));
#1240=CARTESIAN_POINT('',(283.5,-102.5,19.));
#1241=CARTESIAN_POINT('',(283.5,-102.5,5.5));
#1242=CARTESIAN_POINT('',(283.5,0.,19.));
#1243=CARTESIAN_POINT('Origin',(283.5,0.,11.));
#1244=CARTESIAN_POINT('',(283.5,-5.,19.));
#1245=CARTESIAN_POINT('',(283.5,-5.,11.));
#1246=CARTESIAN_POINT('',(283.5,-5.,40.5));
#1247=CARTESIAN_POINT('',(283.5,0.,19.));
#1248=CARTESIAN_POINT('',(283.5,0.,19.));
#1249=CARTESIAN_POINT('',(283.5,0.,11.));
#1250=CARTESIAN_POINT('',(283.5,0.,5.5));
#1251=CARTESIAN_POINT('',(283.5,0.,11.));
#1252=CARTESIAN_POINT('Origin',(283.5,0.,19.));
#1253=CARTESIAN_POINT('',(275.5,-97.5,19.));
#1254=CARTESIAN_POINT('',(297.75,-97.5,19.));
#1255=CARTESIAN_POINT('',(275.5,-102.5,19.));
#1256=CARTESIAN_POINT('',(156.75,-102.5,19.));
#1257=CARTESIAN_POINT('',(275.5,0.,19.));
#1258=CARTESIAN_POINT('Origin',(275.5,0.,11.));
#1259=CARTESIAN_POINT('',(275.5,-97.5,11.));
#1260=CARTESIAN_POINT('',(293.75,-97.5,11.));
#1261=CARTESIAN_POINT('',(275.5,-102.5,11.));
#1262=CARTESIAN_POINT('',(275.5,0.,11.));
#1263=CARTESIAN_POINT('',(152.75,-102.5,11.));
#1264=CARTESIAN_POINT('Origin',(275.5,0.,11.));
#1265=CARTESIAN_POINT('',(275.5,-5.,11.));
#1266=CARTESIAN_POINT('',(162.75,-5.,11.));
#1267=CARTESIAN_POINT('',(275.5,0.,11.));
#1268=CARTESIAN_POINT('',(303.75,0.,11.));
#1269=CARTESIAN_POINT('',(275.5,0.,11.));
#1270=CARTESIAN_POINT('Origin',(275.5,0.,19.));
#1271=CARTESIAN_POINT('',(275.5,-97.5,44.5));
#1272=CARTESIAN_POINT('',(275.5,-102.5,9.5));
#1273=CARTESIAN_POINT('Origin',(275.5,0.,19.));
#1274=CARTESIAN_POINT('',(275.5,-5.,19.));
#1275=CARTESIAN_POINT('',(275.5,-5.,44.5));
#1276=CARTESIAN_POINT('',(275.5,0.,19.));
#1277=CARTESIAN_POINT('',(275.5,0.,9.5));
#1278=CARTESIAN_POINT('',(275.5,0.,19.));
#1279=CARTESIAN_POINT('Origin',(283.5,0.,19.));
#1280=CARTESIAN_POINT('',(166.75,-5.,19.));
#1281=CARTESIAN_POINT('',(307.75,0.,19.));
#1282=CARTESIAN_POINT('Origin',(175.,-100.,32.5));
#1283=CARTESIAN_POINT('',(170.,-98.75,32.5));
#1284=CARTESIAN_POINT('Origin',(170.,-100.,32.5));
#1285=CARTESIAN_POINT('',(175.,-98.75,32.5));
#1286=CARTESIAN_POINT('',(175.,-98.75,32.5));
#1287=CARTESIAN_POINT('Origin',(175.,-100.,32.5));
#1288=CARTESIAN_POINT('Origin',(170.,-100.,32.5));
#1289=CARTESIAN_POINT('Origin',(175.,-2.5,2.5));
#1290=CARTESIAN_POINT('',(170.,-1.25,2.5));
#1291=CARTESIAN_POINT('Origin',(170.,-2.5,2.5));
#1292=CARTESIAN_POINT('',(175.,-1.25,2.5));
#1293=CARTESIAN_POINT('',(175.,-1.25,2.5));
#1294=CARTESIAN_POINT('Origin',(175.,-2.5,2.5));
#1295=CARTESIAN_POINT('Origin',(170.,-2.5,2.5));
#1296=CARTESIAN_POINT('Origin',(175.,-2.5,32.5));
#1297=CARTESIAN_POINT('',(170.,-1.25,32.5));
#1298=CARTESIAN_POINT('Origin',(170.,-2.5,32.5));
#1299=CARTESIAN_POINT('',(175.,-1.25,32.5));
#1300=CARTESIAN_POINT('',(175.,-1.25,32.5));
#1301=CARTESIAN_POINT('Origin',(175.,-2.5,32.5));
#1302=CARTESIAN_POINT('Origin',(170.,-2.5,32.5));
#1303=CARTESIAN_POINT('Origin',(175.,-100.,62.5));
#1304=CARTESIAN_POINT('',(170.,-98.75,62.5));
#1305=CARTESIAN_POINT('Origin',(170.,-100.,62.5));
#1306=CARTESIAN_POINT('',(175.,-98.75,62.5));
#1307=CARTESIAN_POINT('',(175.,-98.75,62.5));
#1308=CARTESIAN_POINT('Origin',(175.,-100.,62.5));
#1309=CARTESIAN_POINT('Origin',(170.,-100.,62.5));
#1310=CARTESIAN_POINT('Origin',(175.,-51.25,2.5));
#1311=CARTESIAN_POINT('',(170.,-50.,2.5));
#1312=CARTESIAN_POINT('Origin',(170.,-51.25,2.5));
#1313=CARTESIAN_POINT('',(175.,-50.,2.5));
#1314=CARTESIAN_POINT('',(175.,-50.,2.5));
#1315=CARTESIAN_POINT('Origin',(175.,-51.25,2.5));
#1316=CARTESIAN_POINT('Origin',(170.,-51.25,2.5));
#1317=CARTESIAN_POINT('Origin',(175.,-2.5,62.5));
#1318=CARTESIAN_POINT('',(170.,-1.25,62.5));
#1319=CARTESIAN_POINT('Origin',(170.,-2.5,62.5));
#1320=CARTESIAN_POINT('',(175.,-1.25,62.5));
#1321=CARTESIAN_POINT('',(175.,-1.25,62.5));
#1322=CARTESIAN_POINT('Origin',(175.,-2.5,62.5));
#1323=CARTESIAN_POINT('Origin',(170.,-2.5,62.5));
#1324=CARTESIAN_POINT('Origin',(175.,-100.,2.5));
#1325=CARTESIAN_POINT('',(170.,-98.75,2.5));
#1326=CARTESIAN_POINT('Origin',(170.,-100.,2.5));
#1327=CARTESIAN_POINT('',(175.,-98.75,2.5));
#1328=CARTESIAN_POINT('',(175.,-98.75,2.5));
#1329=CARTESIAN_POINT('Origin',(175.,-100.,2.5));
#1330=CARTESIAN_POINT('Origin',(170.,-100.,2.5));
#1331=CARTESIAN_POINT('Origin',(175.,-51.25,60.));
#1332=CARTESIAN_POINT('',(175.,-97.5,65.));
#1333=CARTESIAN_POINT('',(175.,-102.5,65.));
#1334=CARTESIAN_POINT('',(175.,-51.25,65.));
#1335=CARTESIAN_POINT('',(175.,-97.5,5.));
#1336=CARTESIAN_POINT('',(175.,-97.5,65.));
#1337=CARTESIAN_POINT('',(175.,-5.,5.));
#1338=CARTESIAN_POINT('',(175.,-51.25,5.));
#1339=CARTESIAN_POINT('',(175.,-5.,65.));
#1340=CARTESIAN_POINT('',(175.,-5.,65.));
#1341=CARTESIAN_POINT('',(175.,0.,65.));
#1342=CARTESIAN_POINT('',(175.,-51.25,65.));
#1343=CARTESIAN_POINT('',(175.,0.,0.));
#1344=CARTESIAN_POINT('',(175.,0.,30.));
#1345=CARTESIAN_POINT('',(175.,-102.5,0.));
#1346=CARTESIAN_POINT('',(175.,-51.25,0.));
#1347=CARTESIAN_POINT('',(175.,-102.5,30.));
#1348=CARTESIAN_POINT('Origin',(181.,-51.25,65.));
#1349=CARTESIAN_POINT('',(312.,-5.00000000000001,65.));
#1350=CARTESIAN_POINT('',(115.5,-5.,65.));
#1351=CARTESIAN_POINT('',(312.,0.,65.));
#1352=CARTESIAN_POINT('',(312.,-25.625,65.));
#1353=CARTESIAN_POINT('',(256.5,0.,65.));
#1354=CARTESIAN_POINT('Origin',(50.,-5.,70.));
#1355=CARTESIAN_POINT('',(312.,-5.00000000000001,5.));
#1356=CARTESIAN_POINT('',(312.,-5.00000000000001,5.));
#1357=CARTESIAN_POINT('',(312.,-5.00000000000001,70.));
#1358=CARTESIAN_POINT('Origin',(181.,-51.25,5.));
#1359=CARTESIAN_POINT('',(312.,-97.5,5.));
#1360=CARTESIAN_POINT('',(50.,-97.5,5.));
#1361=CARTESIAN_POINT('',(312.,-97.5,5.));
#1362=CARTESIAN_POINT('Origin',(312.,-97.5,70.));
#1363=CARTESIAN_POINT('',(312.,-97.5,65.));
#1364=CARTESIAN_POINT('',(246.5,-97.5,65.));
#1365=CARTESIAN_POINT('',(312.,-97.5,70.));
#1366=CARTESIAN_POINT('Origin',(181.,-51.25,65.));
#1367=CARTESIAN_POINT('',(312.,-102.5,65.));
#1368=CARTESIAN_POINT('',(105.5,-102.5,65.));
#1369=CARTESIAN_POINT('',(312.,-25.625,65.));
#1370=CARTESIAN_POINT('Origin',(332.,0.,0.));
#1371=CARTESIAN_POINT('',(312.,0.,120.));
#1372=CARTESIAN_POINT('',(312.,0.,35.));
#1373=CARTESIAN_POINT('',(332.,0.,120.));
#1374=CARTESIAN_POINT('',(312.,0.,120.));
#1375=CARTESIAN_POINT('',(332.,0.,0.));
#1376=CARTESIAN_POINT('',(332.,0.,0.));
#1377=CARTESIAN_POINT('',(30.,0.,0.));
#1378=CARTESIAN_POINT('Origin',(312.,0.,70.));
#1379=CARTESIAN_POINT('',(312.,-102.5,120.));
#1380=CARTESIAN_POINT('',(312.,-102.5,35.));
#1381=CARTESIAN_POINT('',(312.,-102.5,120.));
#1382=CARTESIAN_POINT('Origin',(322.,-51.25,120.));
#1383=CARTESIAN_POINT('',(332.,-102.5,120.));
#1384=CARTESIAN_POINT('',(332.,-102.5,120.));
#1385=CARTESIAN_POINT('',(332.,0.,120.));
#1386=CARTESIAN_POINT('Origin',(332.,-102.5,0.));
#1387=CARTESIAN_POINT('',(332.,-102.5,0.));
#1388=CARTESIAN_POINT('',(332.,0.,0.));
#1389=CARTESIAN_POINT('',(332.,-102.5,0.));
#1390=CARTESIAN_POINT('Origin',(30.,-102.5,0.));
#1391=CARTESIAN_POINT('',(332.,-102.5,0.));
#1392=CARTESIAN_POINT('Origin',(181.,-51.25,0.));
#1393=UNCERTAINTY_MEASURE_WITH_UNIT(LENGTH_MEASURE(0.01),#1397,
'DISTANCE_ACCURACY_VALUE',
'Maximum model space distance between geometric entities at asserted c
onnectivities');
#1394=UNCERTAINTY_MEASURE_WITH_UNIT(LENGTH_MEASURE(0.01),#1397,
'DISTANCE_ACCURACY_VALUE',
'Maximum model space distance between geometric entities at asserted c
onnectivities');
#1395=(
GEOMETRIC_REPRESENTATION_CONTEXT(3)
GLOBAL_UNCERTAINTY_ASSIGNED_CONTEXT((#1393))
GLOBAL_UNIT_ASSIGNED_CONTEXT((#1397,#1399,#1400))
REPRESENTATION_CONTEXT('','3D')
);
#1396=(
GEOMETRIC_REPRESENTATION_CONTEXT(3)
GLOBAL_UNCERTAINTY_ASSIGNED_CONTEXT((#1394))
GLOBAL_UNIT_ASSIGNED_CONTEXT((#1397,#1399,#1400))
REPRESENTATION_CONTEXT('','3D')
);
#1397=(
LENGTH_UNIT()
NAMED_UNIT(*)
SI_UNIT(.MILLI.,.METRE.)
);
#1398=(
LENGTH_UNIT()
NAMED_UNIT(*)
SI_UNIT($,.METRE.)
);
#1399=(
NAMED_UNIT(*)
PLANE_ANGLE_UNIT()
SI_UNIT($,.RADIAN.)
);
#1400=(
NAMED_UNIT(*)
SI_UNIT($,.STERADIAN.)
SOLID_ANGLE_UNIT()
);
#1401=SHAPE_DEFINITION_REPRESENTATION(#1402,#1403);
#1402=PRODUCT_DEFINITION_SHAPE('',$,#1405);
#1403=SHAPE_REPRESENTATION('',(#865),#1395);
#1404=PRODUCT_DEFINITION_CONTEXT('part definition',#1409,'design');
#1405=PRODUCT_DEFINITION('2026-08-02-14-35-30-962',
'Fusion \X2\30B330F330DD30FC30CD30F330C8\X0\',#1406,#1404);
#1406=PRODUCT_DEFINITION_FORMATION('',$,#1411);
#1407=PRODUCT_RELATED_PRODUCT_CATEGORY('Fusion \X2\30B330F330DD30FC30CD30F330C8\X0\',
'Fusion \X2\30B330F330DD30FC30CD30F330C8\X0\',(#1411));
#1408=APPLICATION_PROTOCOL_DEFINITION('international standard',
'automotive_design',2009,#1409);
#1409=APPLICATION_CONTEXT(
'Core Data for Automotive Mechanical Design Process');
#1410=PRODUCT_CONTEXT('part definition',#1409,'mechanical');
#1411=PRODUCT('2026-08-02-14-35-30-962','Fusion \X2\30B330F330DD30FC30CD30F330C8\X0\',
$,(#1410));
#1412=PRESENTATION_STYLE_ASSIGNMENT((#1413));
#1413=SURFACE_STYLE_USAGE(.BOTH.,#1414);
#1414=SURFACE_SIDE_STYLE('',(#1415));
#1415=SURFACE_STYLE_FILL_AREA(#1416);
#1416=FILL_AREA_STYLE('\X2\92FC\X0\ - \X2\30B530C630F3\X0\',(#1417));
#1417=FILL_AREA_STYLE_COLOUR('\X2\92FC\X0\ - \X2\30B530C630F3\X0\',#1418);
#1418=COLOUR_RGB('\X2\92FC\X0\ - \X2\30B530C630F3\X0\',0.627450980392157,
0.627450980392157,0.627450980392157);
ENDSEC;
END-ISO-10303-21;
